<?xml version="1.0" encoding="UTF-8" standalone="no" ?>
<!DOCTYPE svg PUBLIC "-//W3C//DTD SVG 1.1//EN" "http://www.w3.org/Graphics/SVG/1.1/DTD/svg11.dtd">
<svg xmlns="http://www.w3.org/2000/svg" xmlns:xlink="http://www.w3.org/1999/xlink" version="1.1" width="1200" height="900" viewBox="0 0 1200 900" xml:space="preserve">
<desc>Created with Fabric.js 5.2.4</desc>
<defs>
</defs>
<g transform="matrix(1 0 0 1 600 450)" id="ecb92219-4166-4478-9b11-5b5747014e1e"  >
<rect style="stroke: none; stroke-width: 1; stroke-dasharray: none; stroke-linecap: butt; stroke-dashoffset: 0; stroke-linejoin: miter; stroke-miterlimit: 4; fill: rgb(255,255,255); fill-rule: nonzero; opacity: 1;" vector-effect="non-scaling-stroke"  x="-600" y="-450" rx="0" ry="0" width="1200" height="900" />
</g>
<g transform="matrix(Infinity NaN NaN Infinity 0 0)" id="fa37f087-6898-4480-ae88-ff79be266868"  >
</g>
<g transform="matrix(0.83 0 0 0.83 600 450)"  >
<g style="" vector-effect="non-scaling-stroke"   >
		<g transform="matrix(0.13 0 0 -0.13 -479.6 -260.22)"  >
<path style="stroke: none; stroke-width: 1; stroke-dasharray: none; stroke-linecap: butt; stroke-dashoffset: 0; stroke-linejoin: miter; stroke-miterlimit: 4; fill: rgb(0,0,0); fill-rule: nonzero; opacity: 1;" vector-effect="non-scaling-stroke"  transform=" translate(-3096, -6041.19)" d="M 1625 7573 C 1627 7215 1633 6949 1639 6926 C 1644 6904 1652 6812 1655 6721 C 1661 6573 1705 6157 1717 6137 C 1719 6133 1730 6084 1740 6027 C 1750 5971 1763 5903 1769 5875 C 1774 5848 1783 5780 1789 5725 C 1795 5670 1806 5604 1815 5580 C 1824 5555 1835 5481 1840 5415 C 1850 5280 1862 5203 1886 5115 C 1895 5082 1910 5014 1919 4965 C 1929 4915 1944 4863 1953 4849 C 1962 4835 1979 4797 1990 4765 C 2001 4732 2031 4662 2057 4610 C 2096 4530 2118 4500 2200 4415 C 2257 4357 2309 4293 2323 4264 C 2337 4236 2364 4201 2382 4186 C 2444 4134 2555 4067 2600 4053 C 2625 4046 2661 4029 2681 4016 C 2701 4002 2739 3985 2766 3977 C 2793 3969 2831 3955 2850 3947 C 2869 3939 2932 3925 2990 3915 C 3110 3896 3215 3898 3477 3924 C 3648 3941 3651 3942 3752 3989 C 3815 4018 3875 4055 3906 4083 C 3952 4125 3963 4130 4004 4130 C 4041 4130 4055 4125 4081 4099 C 4111 4070 4117 4068 4162 4073 C 4189 4077 4238 4094 4273 4112 C 4332 4143 4337 4149 4378 4230 C 4418 4309 4421 4320 4418 4382 C 4415 4444 4411 4453 4378 4487 C 4353 4513 4340 4537 4337 4565 C 4334 4587 4328 4619 4324 4637 C 4320 4661 4323 4678 4339 4703 C 4370 4753 4416 4869 4423 4915 C 4427 4937 4445 5003 4464 5062 C 4493 5153 4523 5308 4545 5480 C 4561 5614 4571 5822 4571 6035 C 4571 6379 4553 7333 4546 7410 C 4542 7446 4537 7556 4535 7655 C 4533 7754 4527 7900 4521 7980 C 4516 8060 4511 8137 4511 8153 C 4510 8177 4506 8180 4479 8180 L 4447 8180 L 4453 8098 C 4457 8052 4462 7896 4465 7750 C 4468 7604 4475 7442 4480 7390 C 4491 7284 4506 6425 4504 6000 C 4504 5849 4498 5678 4492 5620 C 4457 5276 4463 5314 4407 5100 C 4362 4932 4323 4812 4297 4766 C 4283 4741 4262 4688 4250 4647 L 4228 4573 L 4253 4524 C 4267 4497 4297 4453 4320 4425 C 4357 4382 4361 4371 4357 4338 C 4349 4282 4307 4234 4244 4210 C 4141 4172 4112 4169 4048 4191 C 4016 4202 3981 4209 3970 4205 C 3959 4201 3921 4176 3887 4148 C 3827 4100 3696 4030 3628 4009 C 3610 4003 3539 3995 3470 3989 C 3401 3984 3306 3976 3258 3971 C 3070 3953 2870 3994 2681 4090 C 2649 4107 2616 4120 2607 4120 C 2583 4120 2417 4234 2394 4266 C 2382 4282 2363 4315 2350 4339 C 2338 4363 2291 4419 2246 4464 C 2169 4540 2158 4555 2092 4692 C 2052 4773 2011 4873 2000 4914 C 1973 5009 1920 5275 1910 5360 C 1889 5533 1878 5613 1860 5705 C 1850 5760 1836 5841 1830 5885 C 1806 6059 1797 6106 1779 6158 C 1768 6191 1757 6266 1750 6353 C 1745 6431 1736 6538 1730 6590 C 1711 6778 1700 6947 1700 7068 C 1700 7136 1695 7211 1689 7236 C 1680 7270 1680 7311 1690 7403 C 1698 7490 1700 7619 1694 7853 L 1687 8180 L 1654 8180 L 1621 8180 L 1625 7573 z" stroke-linecap="round" />
</g>
		<g transform="matrix(0.13 0 0 -0.13 599.77 -349.13)"  >
<path style="stroke: none; stroke-width: 1; stroke-dasharray: none; stroke-linecap: butt; stroke-dashoffset: 0; stroke-linejoin: miter; stroke-miterlimit: 4; fill: rgb(0,0,0); fill-rule: nonzero; opacity: 1;" vector-effect="non-scaling-stroke"  transform=" translate(-11191.27, -6708)" d="M 10646 8088 C 10639 7973 10621 7384 10618 7120 C 10615 6876 10627 6613 10645 6495 C 10653 6446 10666 6351 10675 6285 C 10684 6219 10696 6146 10701 6123 C 10717 6050 10712 6025 10676 5981 C 10635 5932 10626 5896 10635 5826 C 10642 5766 10695 5671 10731 5652 C 10747 5643 10778 5641 10825 5644 L 10895 5649 L 10927 5582 C 10944 5545 10977 5490 11000 5460 C 11022 5430 11055 5380 11073 5350 C 11098 5307 11117 5288 11160 5265 C 11207 5240 11225 5236 11290 5236 C 11356 5237 11374 5241 11445 5276 C 11517 5311 11530 5322 11577 5388 C 11662 5507 11691 5618 11720 5935 C 11726 5996 11735 6074 11740 6110 C 11752 6191 11765 6446 11765 6605 C 11765 6869 11749 7419 11740 7475 C 11735 7508 11730 7582 11730 7640 C 11730 7748 11706 8021 11688 8123 C 11678 8177 11676 8180 11648 8180 L 11619 8180 L 11625 8088 C 11629 8037 11635 7984 11640 7970 C 11653 7933 11664 7777 11661 7675 C 11660 7625 11666 7545 11674 7496 C 11687 7427 11691 7325 11692 7061 C 11695 6442 11689 6166 11669 6072 C 11663 6043 11660 6013 11663 6006 C 11670 5988 11653 5838 11636 5762 C 11627 5725 11614 5657 11605 5610 C 11589 5518 11543 5430 11487 5378 C 11448 5342 11340 5300 11288 5300 C 11240 5300 11166 5333 11145 5364 C 11136 5375 11102 5423 11069 5469 C 11016 5542 10974 5627 10943 5725 C 10930 5764 10905 5768 10875 5736 C 10855 5715 10842 5710 10800 5710 L 10749 5710 L 10728 5758 C 10716 5784 10705 5825 10702 5850 C 10699 5890 10703 5902 10740 5954 C 10781 6012 10782 6016 10777 6074 C 10774 6108 10760 6188 10746 6254 C 10732 6319 10720 6393 10720 6418 C 10720 6442 10715 6501 10710 6549 C 10681 6797 10670 7006 10680 7114 C 10686 7173 10688 7230 10685 7240 C 10682 7250 10684 7363 10690 7492 C 10696 7620 10703 7768 10705 7820 C 10707 7872 10712 7975 10716 8048 L 10723 8180 L 10688 8180 L 10653 8180 L 10646 8088 z" stroke-linecap="round" />
</g>
		<g transform="matrix(0.13 0 0 -0.13 600.98 -483)"  >
<path style="stroke: none; stroke-width: 1; stroke-dasharray: none; stroke-linecap: butt; stroke-dashoffset: 0; stroke-linejoin: miter; stroke-miterlimit: 4; fill: rgb(0,0,0); fill-rule: nonzero; opacity: 1;" vector-effect="non-scaling-stroke"  transform=" translate(-11200.38, -7712.04)" d="M 11176 7737 C 11165 7729 11159 7714 11162 7699 C 11164 7679 11170 7675 11200 7675 C 11241 7675 11252 7700 11224 7731 C 11204 7754 11199 7754 11176 7737 z" stroke-linecap="round" />
</g>
		<g transform="matrix(0.13 0 0 -0.13 600.94 -458.35)"  >
<path style="stroke: none; stroke-width: 1; stroke-dasharray: none; stroke-linecap: butt; stroke-dashoffset: 0; stroke-linejoin: miter; stroke-miterlimit: 4; fill: rgb(0,0,0); fill-rule: nonzero; opacity: 1;" vector-effect="non-scaling-stroke"  transform=" translate(-11200.08, -7527.15)" d="M 11172 7558 C 11145 7531 11173 7474 11208 7487 C 11242 7500 11249 7529 11224 7554 C 11205 7573 11188 7574 11172 7558 z" stroke-linecap="round" />
</g>
		<g transform="matrix(0.13 0 0 -0.13 600.92 -434.75)"  >
<path style="stroke: none; stroke-width: 1; stroke-dasharray: none; stroke-linecap: butt; stroke-dashoffset: 0; stroke-linejoin: miter; stroke-miterlimit: 4; fill: rgb(0,0,0); fill-rule: nonzero; opacity: 1;" vector-effect="non-scaling-stroke"  transform=" translate(-11199.91, -7350.18)" d="M 11172 7378 C 11156 7362 11157 7335 11175 7320 C 11193 7305 11220 7310 11234 7333 C 11243 7348 11241 7355 11221 7371 C 11194 7393 11188 7394 11172 7378 z" stroke-linecap="round" />
</g>
		<g transform="matrix(0.13 0 0 -0.13 600.93 -410.67)"  >
<path style="stroke: none; stroke-width: 1; stroke-dasharray: none; stroke-linecap: butt; stroke-dashoffset: 0; stroke-linejoin: miter; stroke-miterlimit: 4; fill: rgb(0,0,0); fill-rule: nonzero; opacity: 1;" vector-effect="non-scaling-stroke"  transform=" translate(-11199.95, -7169.56)" d="M 11170 7195 C 11151 7172 11166 7130 11193 7130 C 11236 7130 11253 7165 11224 7194 C 11205 7214 11186 7214 11170 7195 z" stroke-linecap="round" />
</g>
		<g transform="matrix(0.13 0 0 -0.13 600.89 -386.76)"  >
<path style="stroke: none; stroke-width: 1; stroke-dasharray: none; stroke-linecap: butt; stroke-dashoffset: 0; stroke-linejoin: miter; stroke-miterlimit: 4; fill: rgb(0,0,0); fill-rule: nonzero; opacity: 1;" vector-effect="non-scaling-stroke"  transform=" translate(-11199.7, -6990.25)" d="M 11170 7015 C 11144 6983 11183 6934 11218 6956 C 11252 6978 11240 7030 11200 7030 C 11190 7030 11177 7023 11170 7015 z" stroke-linecap="round" />
</g>
		<g transform="matrix(0.13 0 0 -0.13 128.93 78.15)"  >
<path style="stroke: none; stroke-width: 1; stroke-dasharray: none; stroke-linecap: butt; stroke-dashoffset: 0; stroke-linejoin: miter; stroke-miterlimit: 4; fill: rgb(0,0,0); fill-rule: nonzero; opacity: 1;" vector-effect="non-scaling-stroke"  transform=" translate(-7660, -3503.38)" d="M 7115 6994 C 7055 6987 6987 6976 6965 6970 C 6943 6964 6896 6953 6860 6945 C 6651 6903 6614 6890 6505 6821 C 6480 6805 6444 6789 6424 6786 C 6383 6778 6230 6697 6162 6647 C 6136 6627 6050 6545 5970 6463 C 5842 6333 5816 6300 5753 6192 C 5713 6124 5675 6050 5669 6027 C 5663 6004 5647 5966 5633 5943 C 5620 5920 5600 5859 5590 5808 C 5579 5757 5566 5704 5561 5690 C 5555 5676 5541 5620 5529 5565 C 5468 5283 5453 5233 5370 5045 C 5336 4968 5287 4853 5261 4790 C 5235 4727 5196 4644 5173 4605 C 5133 4538 5126 4517 5129 4478 C 5130 4455 5162 4455 5183 4478 C 5192 4488 5209 4518 5221 4545 C 5233 4573 5251 4607 5261 4621 C 5271 4636 5293 4683 5310 4726 C 5327 4770 5348 4821 5357 4840 C 5366 4859 5386 4909 5402 4950 C 5419 4991 5445 5059 5462 5100 C 5478 5141 5497 5195 5503 5220 C 5510 5245 5520 5264 5525 5262 C 5537 5259 5535 5133 5520 4840 C 5515 4728 5510 4492 5510 4315 C 5510 3977 5525 3772 5555 3690 C 5565 3663 5575 3587 5581 3495 C 5590 3347 5592 3328 5610 3240 C 5616 3215 5627 3141 5636 3075 C 5644 3009 5660 2917 5670 2870 C 5680 2823 5692 2758 5695 2725 C 5704 2646 5728 2588 5749 2592 C 5762 2595 5764 2607 5762 2660 C 5759 2735 5735 2882 5715 2955 C 5685 3063 5680 3089 5680 3129 C 5680 3151 5684 3170 5689 3170 C 5709 3170 5771 2994 5784 2900 C 5789 2868 5807 2832 5845 2776 C 5875 2732 5900 2686 5900 2673 C 5900 2656 5884 2638 5843 2607 C 5811 2584 5738 2519 5680 2462 C 5597 2382 5568 2360 5549 2362 C 5510 2367 5511 2300 5549 2211 C 5566 2173 5580 2138 5580 2134 C 5580 2130 5592 2103 5607 2074 C 5622 2045 5632 2018 5629 2015 C 5626 2012 5604 2016 5579 2024 C 5555 2031 5510 2042 5479 2048 C 5449 2054 5403 2071 5377 2088 C 5340 2111 5315 2118 5250 2124 C 5206 2127 5158 2135 5143 2141 C 5127 2147 5090 2156 5060 2162 C 4810 2208 4789 2210 4760 2191 C 4739 2178 4705 2175 4570 2175 C 4390 2175 4358 2167 4323 2114 C 4309 2092 4308 2081 4317 2047 C 4324 2021 4325 2001 4319 1994 C 4314 1987 4314 1937 4321 1864 C 4326 1799 4333 1682 4335 1605 C 4338 1528 4345 1413 4351 1350 C 4358 1287 4364 1177 4366 1105 C 4368 1034 4374 901 4380 810 C 4386 719 4387 616 4383 580 C 4379 544 4377 504 4379 491 C 4380 474 4369 456 4337 426 C 4305 395 4283 360 4251 286 L 4208 187 L 4220 116 C 4237 16 4254 -2 4327 2 L 4385 5 L 4350 27 C 4289 65 4287 69 4294 124 C 4297 152 4306 196 4314 220 C 4322 245 4331 276 4334 290 C 4339 313 4376 347 4386 337 C 4389 334 4394 301 4399 253 C 4399 246 4437 205 4482 161 C 4528 117 4576 63 4590 41 C 4614 2 4617 1 4665 0 C 4693 0 4721 5 4728 12 C 4737 21 4748 21 4774 12 C 4811 -2 4830 -1 4843 15 C 4849 21 4853 21 4857 13 C 4860 4 4890 0 4958 0 C 5041 0 5052 2 5040 14 C 5005 47 4800 73 4696 58 C 4677 55 4651 84 4662 95 C 4666 99 4719 104 4782 107 C 4879 111 4903 109 4952 92 C 5008 72 5026 74 5011 98 C 4987 138 4790 162 4682 138 C 4637 128 4627 129 4613 143 C 4599 157 4601 159 4639 170 C 4694 185 4688 206 4629 203 C 4591 200 4588 202 4605 212 C 4660 245 4868 252 4959 224 C 5017 207 5020 207 5020 225 C 5020 233 5003 247 4983 255 C 4940 274 4763 292 4740 280 C 4732 276 4703 270 4675 266 C 4648 262 4604 252 4577 243 C 4540 230 4527 229 4518 238 C 4497 259 4528 277 4630 305 C 4725 331 4870 340 4938 324 C 4957 319 4962 321 4955 328 C 4944 340 4855 352 4767 352 C 4708 352 4666 344 4547 308 C 4493 291 4474 289 4455 298 C 4430 310 4430 310 4429 462 C 4428 554 4425 603 4420 585 C 4414 563 4412 577 4409 640 C 4407 687 4406 741 4407 760 C 4408 819 4390 1120 4384 1144 C 4379 1164 4384 1168 4422 1178 C 4604 1223 4878 1239 5045 1215 C 5259 1184 5466 1114 5670 1005 C 5728 974 5776 947 5778 946 C 5785 939 5801 624 5810 331 C 5815 153 5822 4 5825 2 C 5839 -13 5840 25 5829 212 C 5822 324 5820 425 5824 435 C 5829 446 5832 475 5831 500 C 5828 627 5808 911 5795 1030 C 5778 1176 5776 1288 5788 1307 C 5802 1328 5871 1351 5939 1357 C 6016 1363 6104 1343 6189 1300 C 6278 1255 6275 1264 6289 1010 C 6296 886 6306 766 6312 742 C 6319 713 6319 696 6312 687 C 6305 679 6304 621 6307 525 C 6310 443 6313 301 6313 210 C 6313 104 6315 68 6319 110 C 6327 192 6340 166 6340 69 C 6340 7 6342 0 6360 0 C 6379 0 6379 6 6374 168 C 6372 260 6368 351 6366 371 L 6362 406 L 6509 444 C 6787 516 6930 536 7300 554 C 7484 563 7655 568 7680 565 C 7705 562 7846 546 7994 529 C 8299 495 8486 454 8680 378 L 8795 333 L 8802 294 C 8806 272 8809 198 8809 128 L 8810 0 L 8850 0 C 8879 0 8890 4 8890 16 C 8890 24 8905 45 8924 63 C 8943 81 8976 117 8998 144 C 9034 190 9040 194 9083 195 C 9116 195 9136 202 9153 218 C 9171 235 9188 240 9226 240 C 9255 240 9285 246 9296 255 C 9310 265 9344 269 9421 270 C 9543 270 9541 271 9590 173 C 9629 96 9729 0 9771 0 C 9817 0 9807 25 9727 103 C 9683 146 9644 195 9630 225 C 9618 253 9596 289 9584 307 C 9571 324 9560 349 9560 361 C 9560 376 9539 404 9503 440 C 9457 484 9431 500 9377 518 C 9272 552 9228 548 9146 495 C 9108 470 9075 452 9072 455 C 9065 462 9161 594 9258 709 C 9317 780 9345 920 9300 920 C 9275 920 9254 886 9245 830 C 9231 747 9211 708 9142 636 C 9105 596 9058 535 9038 500 C 8984 403 8908 300 8892 300 C 8881 300 8879 311 8885 355 C 8889 392 8887 427 8877 462 C 8869 491 8859 542 8854 575 C 8844 656 8848 909 8860 951 C 8865 969 8877 1027 8886 1080 C 8905 1193 8946 1326 9007 1472 C 9050 1575 9056 1610 9028 1610 C 9005 1610 8994 1596 8966 1535 C 8913 1419 8869 1290 8850 1193 C 8813 1006 8809 990 8799 990 C 8794 990 8789 1036 8789 1093 C 8786 1267 8782 1349 8770 1456 C 8763 1513 8761 1572 8765 1588 C 8769 1607 8796 1640 8843 1683 C 8883 1718 8935 1774 8959 1806 C 9013 1878 9048 1911 9166 1999 C 9257 2068 9313 2127 9344 2188 C 9364 2227 9377 2229 9386 2193 C 9396 2152 9475 1949 9500 1899 C 9513 1875 9536 1839 9552 1819 C 9570 1796 9601 1725 9634 1629 C 9664 1544 9716 1399 9750 1305 C 9784 1212 9831 1056 9855 960 C 9878 864 9907 747 9918 700 C 9930 653 9955 568 9975 510 C 10010 407 10058 193 10067 95 C 10070 68 10079 36 10087 23 L 10102 0 L 10431 0 C 10704 0 10760 2 10760 14 C 10760 21 10767 33 10775 40 C 10795 57 10795 157 10774 221 C 10763 254 10746 279 10724 297 C 10705 311 10690 331 10690 341 C 10690 352 10684 361 10678 361 C 10671 362 10649 364 10630 366 C 10549 373 10381 398 10370 405 C 10347 419 10379 427 10423 419 C 10487 407 10698 408 10706 421 C 10709 427 10700 444 10686 459 C 10669 476 10661 496 10662 511 C 10665 534 10662 535 10583 544 C 10493 554 10485 562 10525 600 C 10548 621 10554 623 10583 612 C 10611 602 10727 594 10755 600 C 10795 609 10811 588 10830 500 C 10835 475 10848 424 10859 385 C 10870 347 10879 299 10879 279 C 10880 259 10887 226 10895 207 C 10904 184 10910 139 10910 85 L 10910 0 L 10953 0 C 10984 0 10998 5 11008 20 C 11024 46 11050 46 11050 20 C 11050 4 11057 0 11080 0 C 11114 0 11111 -14 11112 161 C 11112 220 11108 275 11102 287 C 11091 307 11093 419 11106 507 C 11114 564 11087 653 11054 679 C 11034 695 11013 700 10971 700 C 10888 700 10790 719 10754 741 C 10737 751 10708 760 10691 760 C 10671 760 10657 766 10653 777 C 10646 795 10713 1006 10744 1061 C 10761 1092 10762 1100 10751 1114 C 10730 1139 10714 1133 10680 1090 L 10648 1050 L 10522 1050 C 10390 1050 10261 1068 10234 1091 C 10226 1098 10212 1117 10203 1133 C 10195 1150 10160 1193 10126 1231 C 10093 1268 10055 1312 10042 1329 C 10029 1346 9997 1372 9972 1387 C 9886 1435 9823 1513 9801 1595 C 9795 1617 9776 1658 9759 1685 C 9712 1758 9686 1840 9709 1840 C 9714 1840 9735 1824 9756 1805 C 9776 1786 9799 1770 9807 1770 C 9815 1770 9851 1739 9888 1701 C 9947 1640 9969 1625 10065 1581 C 10155 1540 10189 1530 10245 1526 C 10284 1523 10351 1518 10396 1514 L 10477 1507 L 10516 1542 C 10537 1560 10568 1584 10583 1594 C 10632 1625 10652 1687 10658 1831 L 10663 1958 L 10624 2035 C 10589 2104 10580 2116 10540 2134 C 10513 2146 10473 2154 10441 2154 C 10394 2154 10385 2151 10359 2122 C 10314 2071 10296 1993 10304 1877 C 10307 1823 10315 1770 10320 1760 C 10333 1735 10364 1726 10390 1740 C 10415 1754 10415 1770 10390 1803 C 10361 1839 10361 1984 10390 2040 C 10410 2079 10412 2080 10461 2080 C 10504 2080 10516 2076 10537 2053 C 10551 2037 10570 2001 10580 1973 C 10596 1927 10597 1907 10589 1813 C 10583 1753 10574 1693 10568 1678 C 10556 1645 10469 1589 10432 1589 C 10219 1592 10185 1595 10140 1622 C 10115 1636 10075 1654 10050 1661 C 10017 1671 9988 1692 9941 1738 C 9906 1773 9853 1817 9824 1836 C 9770 1871 9740 1911 9740 1950 C 9740 1962 9733 1999 9725 2033 C 9663 2290 9657 2320 9624 2525 C 9613 2594 9601 2636 9585 2660 C 9558 2700 9552 2737 9545 2930 C 9540 3062 9531 3160 9511 3290 C 9506 3326 9496 3445 9490 3555 C 9484 3665 9472 3807 9464 3870 C 9456 3933 9445 4048 9439 4125 C 9434 4202 9425 4306 9420 4355 C 9404 4498 9392 4630 9375 4850 C 9366 4963 9352 5100 9344 5155 C 9337 5210 9323 5305 9314 5365 C 9306 5426 9292 5504 9283 5540 C 9275 5576 9265 5623 9261 5645 C 9257 5667 9246 5700 9236 5718 C 9217 5754 9221 5778 9251 5821 C 9261 5835 9275 5868 9282 5893 C 9293 5934 9298 5941 9334 5952 C 9416 5979 9427 6050 9359 6127 C 9285 6213 9222 6231 9150 6190 C 9070 6144 9069 6144 9049 6169 C 9027 6196 9023 6269 9042 6288 C 9049 6295 9065 6300 9077 6300 C 9117 6300 9161 6329 9176 6366 C 9189 6396 9189 6408 9174 6463 C 9156 6535 9132 6565 9073 6591 C 9049 6601 9017 6619 9001 6631 C 8973 6651 8970 6652 8919 6636 C 8889 6628 8848 6609 8828 6595 C 8808 6581 8787 6570 8783 6570 C 8778 6570 8752 6593 8725 6621 C 8697 6650 8655 6681 8630 6692 C 8605 6703 8570 6723 8552 6737 C 8533 6751 8497 6768 8470 6775 C 8443 6782 8406 6800 8387 6814 C 8369 6828 8348 6840 8342 6840 C 8336 6840 8302 6851 8268 6864 C 8233 6877 8169 6896 8125 6905 C 8081 6914 8029 6926 8008 6932 C 7988 6938 7957 6940 7938 6936 C 7914 6932 7879 6938 7815 6961 C 7739 6987 7702 6993 7580 7000 C 7385 7012 7247 7010 7115 6994 z M 8958 6200 C 8960 6105 8936 5909 8910 5817 C 8898 5776 8863 5748 8798 5728 C 8769 5720 8757 5720 8745 5730 C 8721 5750 8727 5784 8775 5895 C 8818 5992 8892 6209 8905 6273 C 8909 6293 8916 6300 8933 6300 C 8954 6300 8955 6296 8958 6200 z M 9230 5935 C 9230 5898 9212 5860 9175 5818 C 9156 5797 9140 5776 9140 5771 C 9140 5766 9119 5742 9093 5716 C 9049 5674 9041 5670 8997 5670 C 8910 5670 8923 5712 9036 5796 C 9089 5835 9119 5866 9139 5903 C 9155 5932 9174 5961 9180 5968 C 9196 5986 9230 5965 9230 5935 z M 6654 5685 C 6656 5597 6668 5446 6679 5350 C 6710 5083 6710 5082 6677 5056 C 6652 5038 6631 5034 6502 5029 C 6421 5026 6351 5027 6346 5031 C 6342 5035 6359 5084 6384 5140 C 6409 5196 6430 5248 6430 5255 C 6430 5263 6443 5301 6459 5341 C 6487 5410 6489 5413 6541 5434 C 6586 5452 6595 5459 6595 5480 C 6595 5501 6588 5507 6558 5514 C 6537 5519 6520 5528 6520 5532 C 6520 5537 6528 5562 6538 5588 C 6566 5660 6591 5731 6602 5775 C 6635 5904 6647 5883 6654 5685 z M 7783 5803 C 7791 5787 7805 5750 7813 5720 C 7822 5690 7838 5647 7850 5625 C 7861 5604 7870 5578 7870 5568 C 7870 5559 7881 5530 7895 5504 C 7909 5478 7920 5448 7920 5438 C 7920 5427 7925 5410 7930 5399 C 7950 5363 7930 5360 7873 5390 C 7842 5407 7803 5420 7786 5420 C 7769 5420 7746 5427 7736 5435 C 7725 5443 7704 5450 7688 5450 C 7656 5450 7655 5451 7674 5505 C 7691 5554 7705 5620 7720 5725 C 7727 5769 7734 5811 7736 5818 C 7742 5839 7769 5831 7783 5803 z M 6177 5534 C 6183 5475 6186 5422 6183 5415 C 6177 5397 6133 5381 6080 5378 C 6025 5374 6018 5392 6053 5447 C 6066 5468 6081 5501 6085 5520 C 6094 5565 6137 5640 6154 5640 C 6162 5640 6170 5607 6177 5534 z M 7750 5366 C 7979 5284 7988 5279 8014 5192 C 8024 5161 8045 5111 8061 5082 C 8113 4988 8093 4968 7970 4989 C 7735 5031 7589 5053 7556 5052 C 7503 5050 7530 5012 7608 4980 C 7641 4966 7672 4952 7675 4948 C 7679 4945 7674 4907 7665 4864 C 7651 4803 7648 4758 7653 4641 C 7660 4454 7671 4421 7759 4331 L 7825 4262 L 7910 4256 C 8004 4249 8088 4265 8146 4301 C 8194 4330 8299 4447 8306 4478 C 8317 4531 8319 4533 8334 4520 C 8342 4514 8352 4494 8355 4477 C 8359 4459 8388 4404 8421 4355 C 8453 4305 8480 4260 8480 4255 C 8480 4249 8496 4221 8515 4191 C 8534 4161 8561 4106 8576 4067 C 8607 3985 8602 3966 8533 3919 C 8510 3903 8485 3881 8477 3870 C 8428 3801 8125 3630 7920 3557 C 7868 3538 7776 3504 7715 3480 C 7641 3451 7579 3434 7525 3428 C 7411 3416 7112 3418 7087 3432 C 7075 3438 7010 3444 6939 3445 C 6837 3446 6807 3450 6785 3464 C 6771 3473 6708 3490 6647 3500 C 6529 3520 6435 3550 6255 3623 C 6085 3692 6031 3720 6019 3743 C 6013 3755 5970 3804 5924 3851 C 5864 3913 5840 3945 5840 3962 C 5840 3976 5833 4007 5825 4031 C 5782 4151 5738 4383 5724 4560 C 5721 4601 5716 4659 5713 4687 C 5709 4729 5712 4747 5730 4774 C 5763 4828 5806 4860 5846 4860 C 5866 4860 5890 4865 5901 4870 C 5924 4883 5921 4891 5950 4730 C 5967 4632 5981 4583 6017 4505 C 6072 4386 6087 4368 6148 4345 C 6174 4335 6212 4317 6232 4304 C 6279 4274 6335 4273 6426 4301 C 6474 4316 6504 4332 6526 4356 C 6565 4397 6610 4485 6610 4520 C 6610 4534 6619 4564 6631 4585 C 6657 4636 6669 4690 6680 4815 C 6691 4925 6695 4940 6709 4940 C 6732 4940 6743 4889 6750 4758 C 6756 4657 6762 4614 6774 4595 C 6792 4568 6818 4562 6825 4583 C 6827 4589 6831 4675 6834 4773 C 6840 4949 6844 4980 6861 4963 C 6870 4954 6901 4791 6944 4534 C 6958 4450 6979 4355 6990 4323 C 7001 4290 7017 4235 7024 4199 C 7057 4048 7063 4029 7084 3998 C 7133 3925 7169 3958 7189 4095 C 7205 4208 7271 4423 7313 4501 C 7349 4567 7386 4673 7410 4780 C 7423 4838 7442 4891 7458 4915 C 7486 4957 7504 5010 7519 5096 C 7524 5125 7542 5172 7559 5202 C 7576 5232 7590 5263 7590 5271 C 7590 5279 7601 5309 7615 5338 C 7643 5399 7653 5401 7750 5366 z M 6180 5314 C 6194 5277 6193 5023 6179 5014 C 6172 5010 6106 5003 6031 4999 C 5956 4995 5883 4988 5869 4985 C 5816 4972 5826 5013 5904 5129 C 5924 5158 5940 5189 5940 5197 C 5940 5234 5970 5268 6017 5283 C 6044 5292 6085 5308 6110 5319 C 6167 5345 6169 5345 6180 5314 z M 7734 3338 C 7736 3331 7743 3287 7749 3240 C 7760 3149 7757 3120 7720 2935 C 7707 2875 7696 2807 7693 2785 C 7685 2702 7687 2704 7623 2705 C 7591 2706 7554 2711 7540 2717 C 7526 2723 7462 2733 7398 2740 C 7333 2746 7268 2755 7253 2759 C 7237 2763 7196 2763 7160 2758 C 7124 2753 7082 2747 7065 2746 C 7049 2744 7001 2740 6959 2735 C 6913 2731 6880 2732 6877 2737 C 6867 2753 6860 3072 6868 3110 C 6874 3137 6884 3149 6914 3163 C 6977 3193 6984 3187 6992 3088 C 6999 2991 7003 2980 7030 2980 C 7062 2980 7071 3012 7064 3104 C 7059 3163 7061 3198 7070 3220 C 7081 3246 7080 3253 7066 3269 C 7057 3278 7050 3297 7050 3310 C 7050 3329 7054 3332 7078 3327 C 7218 3299 7268 3297 7341 3314 C 7402 3329 7419 3330 7451 3320 C 7498 3304 7614 3313 7644 3334 C 7670 3352 7729 3355 7734 3338 z M 7405 2661 C 7471 2649 7548 2636 7575 2631 C 7603 2625 7631 2621 7638 2621 C 7654 2620 7653 2589 7636 2565 C 7629 2554 7615 2503 7606 2452 C 7598 2401 7580 2323 7566 2277 C 7552 2232 7534 2159 7524 2115 C 7495 1977 7471 1888 7458 1872 C 7448 1860 7430 1859 7360 1865 C 7258 1875 7190 1875 7050 1866 C 6987 1862 6939 1863 6931 1868 C 6888 1898 6862 2642 6904 2655 C 6941 2666 7165 2687 7220 2685 C 7256 2683 7339 2672 7405 2661 z M 9175 2519 C 9194 2502 9210 2482 9210 2475 C 9210 2468 9196 2445 9179 2424 C 9162 2402 9133 2356 9115 2320 C 9058 2207 8894 2008 8819 1960 C 8776 1933 8690 1825 8690 1799 C 8690 1790 8682 1772 8672 1760 C 8656 1741 8648 1738 8616 1744 C 8579 1751 8530 1788 8530 1809 C 8530 1815 8548 1831 8571 1845 C 8599 1863 8619 1887 8635 1922 C 8648 1950 8683 1998 8713 2029 C 8786 2104 8885 2230 9000 2390 C 9101 2531 9116 2550 9130 2550 C 9135 2550 9155 2536 9175 2519 z M 5869 2435 C 5881 2410 5890 2387 5890 2384 C 5890 2380 5930 2304 5980 2216 C 6029 2127 6076 2034 6084 2008 C 6091 1982 6116 1929 6139 1890 C 6162 1850 6180 1815 6180 1810 C 6180 1800 6125 1780 6097 1780 C 6080 1780 6078 1785 6083 1822 C 6090 1872 6066 1926 6010 1985 C 5973 2024 5780 2343 5765 2389 C 5760 2407 5765 2419 5791 2446 C 5809 2465 5829 2480 5836 2480 C 5842 2480 5857 2460 5869 2435 z M 4943 2120 C 4977 2114 5041 2100 5085 2090 C 5129 2079 5197 2068 5235 2064 C 5287 2059 5321 2049 5366 2024 C 5413 1997 5439 1990 5479 1990 C 5518 1990 5550 1981 5603 1956 C 5643 1938 5700 1917 5730 1911 C 5793 1898 5850 1867 5850 1846 C 5850 1834 5844 1833 5818 1843 C 5800 1849 5761 1853 5732 1852 C 5687 1851 5666 1857 5599 1892 C 5544 1920 5504 1934 5471 1936 C 5426 1939 5237 1997 5180 2025 C 5144 2043 5095 2050 4974 2055 C 4916 2058 4864 2063 4859 2066 C 4854 2069 4843 2067 4834 2062 C 4816 2052 4846 2047 5000 2034 C 5141 2022 5356 1950 5436 1889 C 5465 1867 5511 1842 5541 1832 C 5570 1823 5595 1809 5598 1802 C 5600 1794 5578 1799 5533 1816 C 5496 1831 5445 1849 5420 1858 C 5395 1866 5367 1877 5358 1881 C 5328 1896 5096 1950 5063 1950 C 5046 1950 5030 1955 5028 1962 C 5025 1970 4973 1974 4859 1977 C 4768 1978 4657 1987 4610 1995 C 4508 2014 4438 2045 4442 2069 C 4445 2083 4463 2085 4573 2085 L 4700 2085 L 4727 2114 C 4752 2141 4756 2142 4817 2137 C 4852 2133 4908 2126 4943 2120 z M 5020 1891 C 5072 1885 5149 1870 5190 1857 L 5265 1834 L 5268 1784 C 5273 1714 5246 1575 5230 1585 C 5226 1588 5204 1570 5182 1545 C 5150 1509 5144 1505 5147 1524 C 5150 1537 5145 1562 5136 1579 C 5120 1608 5120 1611 5137 1616 C 5188 1632 5220 1676 5226 1740 C 5231 1791 5209 1794 5191 1745 C 5184 1726 5174 1710 5169 1710 C 5164 1710 5160 1702 5160 1692 C 5160 1673 5142 1650 5128 1650 C 5124 1650 5120 1662 5120 1676 C 5120 1715 5067 1784 5021 1805 C 4981 1823 4979 1823 4959 1804 C 4948 1794 4931 1773 4922 1757 C 4913 1742 4896 1727 4885 1724 C 4872 1721 4855 1699 4841 1669 C 4823 1629 4814 1619 4797 1622 C 4781 1624 4776 1631 4778 1645 C 4779 1656 4785 1711 4789 1768 C 4800 1896 4812 1914 4880 1906 C 4905 1903 4968 1896 5020 1891 z M 7370 1803 C 7409 1792 7288 1782 7000 1771 C 6697 1759 6463 1723 6303 1663 C 6280 1655 6254 1650 6245 1654 C 6234 1658 6230 1655 6232 1642 C 6235 1623 6224 1623 6141 1647 L 6088 1662 L 6119 1681 C 6157 1704 6168 1705 6191 1684 C 6207 1669 6211 1671 6245 1709 C 6265 1731 6296 1753 6313 1759 C 6331 1764 6417 1776 6505 1785 C 6593 1795 6685 1805 6710 1809 C 6763 1818 7334 1813 7370 1803 z M 5072 1730 C 5096 1701 5100 1689 5095 1660 C 5091 1641 5082 1615 5075 1603 C 5062 1584 5057 1583 5030 1593 C 5008 1601 5000 1610 5004 1622 C 5010 1648 4993 1654 4985 1629 C 4980 1615 4984 1604 4997 1595 C 5014 1583 5013 1581 4986 1574 C 4968 1570 4950 1572 4938 1579 C 4928 1585 4915 1588 4910 1585 C 4895 1576 4863 1589 4856 1606 C 4851 1618 4854 1621 4866 1616 C 4879 1611 4881 1614 4877 1629 C 4874 1641 4878 1651 4886 1654 C 4894 1657 4900 1664 4900 1670 C 4900 1676 4918 1707 4941 1740 L 4982 1800 L 5012 1783 C 5029 1773 5055 1749 5072 1730 z M 5745 1766 C 5786 1749 5791 1730 5755 1730 C 5722 1730 5680 1750 5680 1767 C 5680 1784 5702 1784 5745 1766 z M 5910 1731 C 5896 1704 5897 1700 5918 1699 C 5932 1699 5932 1697 5915 1690 C 5889 1679 5800 1678 5800 1688 C 5800 1710 5864 1748 5903 1749 C 5917 1750 5919 1746 5910 1731 z M 6038 1718 C 6051 1705 6054 1670 6043 1670 C 6012 1671 5989 1730 6020 1730 C 6023 1730 6031 1725 6038 1718 z M 4474 1681 C 4477 1677 4477 1670 4474 1667 C 4466 1659 4440 1670 4440 1681 C 4440 1692 4467 1693 4474 1681 z M 4667 1673 C 4669 1667 4642 1663 4599 1662 C 4525 1660 4506 1665 4516 1681 C 4523 1694 4663 1686 4667 1673 z M 7785 1660 C 7857 1654 7976 1646 8050 1641 C 8179 1632 8449 1584 8515 1558 C 8531 1551 8587 1537 8639 1525 C 8716 1509 8734 1501 8737 1485 C 8740 1474 8745 1389 8750 1295 C 8758 1134 8769 966 8790 676 C 8796 606 8797 544 8794 539 C 8788 529 8766 533 8715 555 C 8630 591 8537 624 8470 642 C 8429 652 8361 670 8320 681 C 8279 692 8207 705 8160 710 C 7694 760 7720 756 7686 789 C 7669 805 7645 821 7633 824 C 7609 832 7540 805 7540 789 C 7540 769 7486 762 7237 751 C 6947 737 6753 709 6522 646 C 6449 626 6383 610 6376 610 C 6359 610 6352 697 6340 1044 C 6335 1187 6327 1348 6324 1401 C 6316 1513 6299 1498 6478 1539 C 6672 1584 6956 1627 7150 1641 C 7246 1647 7352 1656 7385 1660 C 7477 1671 7641 1671 7785 1660 z M 5970 1655 C 5970 1653 5952 1646 5929 1640 C 5900 1632 5883 1620 5869 1595 C 5858 1577 5842 1559 5833 1556 C 5822 1551 5821 1546 5828 1537 C 5842 1521 5831 1505 5804 1498 C 5786 1493 5781 1498 5776 1522 C 5768 1563 5768 1645 5777 1653 C 5784 1661 5970 1663 5970 1655 z M 6095 1634 C 6128 1625 6178 1613 6205 1606 L 6255 1595 L 6262 1545 C 6272 1467 6271 1290 6260 1290 C 6255 1290 6228 1304 6199 1320 C 6171 1337 6112 1359 6068 1370 C 5988 1389 5930 1388 5823 1365 L 5790 1358 L 5790 1403 L 5790 1448 L 5835 1454 C 5860 1458 5884 1458 5890 1455 C 5895 1452 5910 1456 5922 1464 C 5934 1473 5960 1480 5980 1479 C 6006 1479 6010 1477 5996 1471 C 5978 1464 5978 1463 6001 1447 C 6030 1426 6050 1425 6050 1445 C 6050 1463 6110 1466 6141 1450 C 6157 1441 6160 1443 6160 1461 C 6160 1480 6164 1482 6195 1477 C 6214 1474 6230 1475 6230 1480 C 6230 1493 6171 1520 6155 1513 C 6146 1510 6134 1520 6123 1540 C 6093 1595 6068 1622 6036 1636 C 5993 1654 6024 1653 6095 1634 z M 6042 1604 C 6073 1588 6104 1536 6096 1514 C 6092 1503 6085 1503 6065 1510 C 6050 1516 6035 1518 6031 1516 C 6027 1513 6017 1520 6010 1531 C 6002 1541 5991 1550 5985 1550 C 5967 1550 5970 1512 5988 1506 C 5997 1503 5982 1502 5954 1505 C 5924 1507 5898 1504 5891 1497 C 5883 1489 5877 1489 5868 1498 C 5849 1517 5897 1609 5929 1616 C 5943 1619 5960 1623 5965 1625 C 5978 1629 6008 1621 6042 1604 z M 4630 1584 C 4630 1576 4623 1570 4615 1570 C 4600 1570 4594 1591 4606 1603 C 4616 1612 4630 1601 4630 1584 z M 4518 1583 C 4520 1575 4512 1570 4496 1570 C 4471 1570 4463 1580 4477 1594 C 4487 1604 4513 1597 4518 1583 z M 4570 1584 C 4570 1567 4548 1570 4542 1588 C 4540 1595 4545 1600 4554 1600 C 4563 1600 4570 1593 4570 1584 z M 4680 1590 C 4680 1585 4676 1580 4670 1580 C 4665 1580 4660 1585 4660 1590 C 4660 1596 4665 1600 4670 1600 C 4676 1600 4680 1596 4680 1590 z M 5110 1495 C 5110 1460 5106 1448 5088 1439 C 5060 1424 4919 1426 4909 1441 C 4905 1449 4897 1448 4883 1439 C 4857 1423 4830 1434 4830 1460 C 4830 1484 4869 1503 4887 1488 C 4896 1481 4905 1484 4918 1500 C 4942 1530 4980 1520 4980 1484 C 4980 1467 4985 1460 5000 1460 C 5013 1460 5020 1467 5020 1479 C 5020 1502 5065 1540 5091 1540 C 5107 1540 5110 1532 5110 1495 z M 4660 1510 C 4660 1505 4643 1499 4623 1496 C 4570 1489 4563 1489 4490 1487 C 4440 1485 4425 1488 4422 1500 C 4420 1513 4439 1515 4540 1516 C 4606 1517 4660 1514 4660 1510 z M 5179 1367 C 5195 1354 5200 1340 5198 1317 C 5194 1277 5181 1277 5154 1318 C 5142 1335 5131 1347 5128 1345 C 5126 1343 5126 1356 5128 1375 C 5131 1403 5135 1407 5145 1397 C 5152 1390 5168 1377 5179 1367 z M 5082 1384 C 5092 1375 5065 1287 5051 1282 C 5040 1278 5038 1285 5043 1308 C 5047 1330 5045 1340 5034 1344 C 5012 1353 4953 1351 4965 1342 C 4971 1338 4977 1321 4978 1304 C 4980 1280 4975 1271 4955 1262 C 4924 1248 4917 1247 4924 1259 C 4927 1264 4914 1271 4895 1274 C 4876 1278 4858 1284 4856 1289 C 4846 1305 4874 1372 4895 1380 C 4917 1390 5074 1393 5082 1384 z M 4800 1359 C 4800 1348 4796 1342 4790 1345 C 4785 1348 4780 1358 4780 1366 C 4780 1374 4785 1380 4790 1380 C 4796 1380 4800 1371 4800 1359 z M 5217 1338 C 5214 1330 5211 1333 5211 1344 C 5210 1355 5213 1361 5216 1357 C 5219 1354 5220 1345 5217 1338 z M 7320 700 C 7320 695 7316 690 7310 690 C 7305 690 7300 695 7300 700 C 7300 706 7305 710 7310 710 C 7316 710 7320 706 7320 700 z M 7380 700 C 7380 695 7376 690 7370 690 C 7365 690 7360 695 7360 700 C 7360 706 7365 710 7370 710 C 7376 710 7380 706 7380 700 z M 7470 700 C 7470 695 7468 690 7466 690 C 7463 690 7458 695 7455 700 C 7452 706 7454 710 7459 710 C 7465 710 7470 706 7470 700 z M 7150 690 C 7150 685 7145 680 7139 680 C 7134 680 7132 685 7135 690 C 7138 696 7143 700 7146 700 C 7148 700 7150 696 7150 690 z M 7880 680 C 7880 675 7876 670 7870 670 C 7865 670 7860 675 7860 680 C 7860 686 7865 690 7870 690 C 7876 690 7880 686 7880 680 z M 6865 660 C 6868 655 6866 650 6861 650 C 6855 650 6850 655 6850 660 C 6850 666 6852 670 6854 670 C 6857 670 6862 666 6865 660 z M 8165 650 C 8168 645 8166 640 8161 640 C 8155 640 8150 645 8150 650 C 8150 656 8152 660 8154 660 C 8157 660 8162 656 8165 650 z M 8220 640 C 8220 635 8216 630 8210 630 C 8205 630 8200 635 8200 640 C 8200 646 8205 650 8210 650 C 8216 650 8220 646 8220 640 z M 10884 618 C 10887 605 10890 586 10890 575 C 10889 555 10889 555 10875 574 C 10859 596 10855 640 10869 640 C 10874 640 10880 630 10884 618 z M 7350 626 C 7350 623 7346 618 7340 615 C 7335 612 7330 614 7330 619 C 7330 625 7335 630 7340 630 C 7346 630 7350 628 7350 626 z M 7780 620 C 7780 615 7778 610 7776 610 C 7773 610 7768 615 7765 620 C 7762 626 7764 630 7769 630 C 7775 630 7780 626 7780 620 z M 8320 620 C 8320 615 8316 610 8310 610 C 8305 610 8300 615 8300 620 C 8300 626 8305 630 8310 630 C 8316 630 8320 626 8320 620 z M 7912 605 C 7912 600 7907 594 7901 592 C 7895 590 7890 596 7890 605 C 7890 614 7895 620 7901 618 C 7907 616 7912 610 7912 605 z M 11018 608 C 11042 584 11026 488 10995 476 C 10972 467 10957 489 10952 539 C 10950 566 10950 596 10953 605 C 10960 623 11001 625 11018 608 z M 6870 590 C 6870 585 6865 580 6859 580 C 6854 580 6852 585 6855 590 C 6858 596 6863 600 6866 600 C 6868 600 6870 596 6870 590 z M 8265 570 C 8268 565 8266 560 8261 560 C 8255 560 8250 565 8250 570 C 8250 576 8252 580 8254 580 C 8257 580 8262 576 8265 570 z M 8330 550 C 8330 545 8326 540 8320 540 C 8315 540 8310 545 8310 550 C 8310 556 8315 560 8320 560 C 8326 560 8330 556 8330 550 z M 8430 519 C 8430 513 8426 512 8420 515 C 8415 518 8410 526 8410 531 C 8410 537 8415 538 8420 535 C 8426 532 8430 524 8430 519 z M 10425 490 C 10428 485 10427 480 10421 480 C 10416 480 10408 485 10405 490 C 10402 496 10403 500 10409 500 C 10414 500 10422 496 10425 490 z M 9318 453 C 9329 431 9322 360 9308 360 C 9303 360 9294 374 9289 390 C 9277 422 9263 427 9227 408 C 9215 402 9198 394 9190 390 C 9180 385 9176 372 9178 351 C 9182 313 9159 309 9136 342 C 9112 376 9117 395 9160 434 C 9196 466 9206 470 9255 470 C 9297 470 9311 466 9318 453 z M 10328 434 C 10355 415 10356 403 10330 395 C 10309 388 10220 417 10220 430 C 10220 455 10294 458 10328 434 z M 11020 419 C 11020 409 11013 400 11005 400 C 10990 400 10984 431 10996 443 C 11007 453 11020 440 11020 419 z M 11031 323 C 11041 297 11026 230 11011 230 C 10982 230 10969 301 10991 341 C 11003 364 11018 358 11031 323 z M 10410 330 C 10410 325 10406 320 10401 320 C 10395 320 10388 325 10385 330 C 10382 336 10386 340 10394 340 C 10403 340 10410 336 10410 330 z M 10695 220 C 10717 196 10727 111 10711 81 C 10699 59 10632 20 10606 20 C 10583 20 10540 90 10540 127 C 10540 151 10550 170 10578 200 C 10622 246 10665 253 10695 220 z M 4565 170 C 4575 159 4581 150 4578 150 C 4575 150 4565 159 4555 170 C 4545 181 4539 190 4542 190 C 4545 190 4555 181 4565 170 z M 4611 123 C 4624 107 4623 106 4608 119 C 4591 132 4586 140 4594 140 C 4596 140 4604 132 4611 123 z M 11035 110 C 11045 94 11019 67 11007 79 C 10996 90 11005 120 11019 120 C 11024 120 11032 115 11035 110 z" stroke-linecap="round" />
</g>
		<g transform="matrix(0.13 0 0 -0.13 -105.73 -24.63)"  >
<path style="stroke: none; stroke-width: 1; stroke-dasharray: none; stroke-linecap: butt; stroke-dashoffset: 0; stroke-linejoin: miter; stroke-miterlimit: 4; fill: rgb(0,0,0); fill-rule: nonzero; opacity: 1;" vector-effect="non-scaling-stroke"  transform=" translate(-5900, -4274.22)" d="M 5885 4293 C 5840 4225 5863 4191 5914 4251 C 5942 4283 5943 4289 5934 4314 C 5925 4338 5913 4333 5885 4293 z" stroke-linecap="round" />
</g>
		<g transform="matrix(0.13 0 0 -0.13 -97.03 -14.67)"  >
<path style="stroke: none; stroke-width: 1; stroke-dasharray: none; stroke-linecap: butt; stroke-dashoffset: 0; stroke-linejoin: miter; stroke-miterlimit: 4; fill: rgb(0,0,0); fill-rule: nonzero; opacity: 1;" vector-effect="non-scaling-stroke"  transform=" translate(-5965.29, -4199.56)" d="M 5952 4217 C 5925 4188 5923 4160 5949 4160 C 5971 4160 6000 4195 6000 4222 C 6000 4247 5978 4244 5952 4217 z" stroke-linecap="round" />
</g>
		<g transform="matrix(0.13 0 0 -0.13 215.02 -6.46)"  >
<path style="stroke: none; stroke-width: 1; stroke-dasharray: none; stroke-linecap: butt; stroke-dashoffset: 0; stroke-linejoin: miter; stroke-miterlimit: 4; fill: rgb(0,0,0); fill-rule: nonzero; opacity: 1;" vector-effect="non-scaling-stroke"  transform=" translate(-8305.66, -4138)" d="M 8294 4156 C 8287 4136 8296 4110 8310 4110 C 8323 4110 8323 4157 8310 4165 C 8304 4168 8297 4164 8294 4156 z" stroke-linecap="round" />
</g>
		<g transform="matrix(0.13 0 0 -0.13 231.54 -1.49)"  >
<path style="stroke: none; stroke-width: 1; stroke-dasharray: none; stroke-linecap: butt; stroke-dashoffset: 0; stroke-linejoin: miter; stroke-miterlimit: 4; fill: rgb(0,0,0); fill-rule: nonzero; opacity: 1;" vector-effect="non-scaling-stroke"  transform=" translate(-8429.58, -4100.68)" d="M 8413 4123 C 8392 4115 8398 4083 8422 4076 C 8449 4069 8463 4081 8458 4106 C 8455 4125 8435 4133 8413 4123 z" stroke-linecap="round" />
</g>
		<g transform="matrix(0.13 0 0 -0.13 71.53 47.5)"  >
<path style="stroke: none; stroke-width: 1; stroke-dasharray: none; stroke-linecap: butt; stroke-dashoffset: 0; stroke-linejoin: miter; stroke-miterlimit: 4; fill: rgb(0,0,0); fill-rule: nonzero; opacity: 1;" vector-effect="non-scaling-stroke"  transform=" translate(-7229.51, -3733.28)" d="M 7175 3816 C 7130 3803 7090 3753 7090 3709 C 7090 3659 7173 3620 7218 3649 C 7239 3662 7228 3693 7200 3700 C 7172 3707 7161 3738 7182 3751 C 7189 3756 7212 3760 7233 3760 C 7265 3760 7274 3755 7288 3729 C 7321 3669 7325 3666 7348 3679 C 7377 3694 7376 3717 7345 3763 C 7302 3826 7255 3841 7175 3816 z" stroke-linecap="round" />
</g>
		<g transform="matrix(0.13 0 0 -0.13 -217.83 326.06)"  >
<path style="stroke: none; stroke-width: 1; stroke-dasharray: none; stroke-linecap: butt; stroke-dashoffset: 0; stroke-linejoin: miter; stroke-miterlimit: 4; fill: rgb(0,0,0); fill-rule: nonzero; opacity: 1;" vector-effect="non-scaling-stroke"  transform=" translate(-5059.31, -1644.09)" d="M 5058 1664 C 5053 1660 5050 1648 5050 1636 C 5050 1622 5053 1619 5061 1627 C 5067 1633 5070 1646 5068 1655 C 5067 1664 5062 1668 5058 1664 z" stroke-linecap="round" />
</g>
		<g transform="matrix(0.13 0 0 -0.13 124.02 350.6)"  >
<path style="stroke: none; stroke-width: 1; stroke-dasharray: none; stroke-linecap: butt; stroke-dashoffset: 0; stroke-linejoin: miter; stroke-miterlimit: 4; fill: rgb(0,0,0); fill-rule: nonzero; opacity: 1;" vector-effect="non-scaling-stroke"  transform=" translate(-7623.12, -1460)" d="M 7540 1466 C 7540 1410 7543 1400 7560 1395 C 7584 1387 7600 1396 7600 1416 C 7600 1437 7618 1433 7630 1410 C 7638 1396 7651 1390 7677 1390 C 7711 1390 7712 1391 7697 1408 C 7686 1420 7681 1440 7683 1465 C 7685 1498 7681 1506 7660 1517 C 7646 1524 7614 1530 7588 1530 L 7540 1530 L 7540 1466 z M 7624 1494 C 7642 1487 7636 1470 7614 1470 C 7606 1470 7600 1477 7600 1485 C 7600 1502 7602 1503 7624 1494 z" stroke-linecap="round" />
</g>
		<g transform="matrix(0.13 0 0 -0.13 88.87 352.16)"  >
<path style="stroke: none; stroke-width: 1; stroke-dasharray: none; stroke-linecap: butt; stroke-dashoffset: 0; stroke-linejoin: miter; stroke-miterlimit: 4; fill: rgb(0,0,0); fill-rule: nonzero; opacity: 1;" vector-effect="non-scaling-stroke"  transform=" translate(-7359.49, -1448.3)" d="M 7308 1513 C 7294 1510 7290 1498 7291 1462 C 7292 1386 7300 1375 7351 1378 C 7375 1380 7403 1383 7413 1386 C 7442 1395 7426 1415 7393 1412 C 7353 1408 7341 1427 7374 1442 C 7406 1456 7407 1466 7378 1476 C 7356 1484 7356 1484 7384 1489 C 7435 1499 7428 1520 7373 1519 C 7347 1518 7317 1516 7308 1513 z" stroke-linecap="round" />
</g>
		<g transform="matrix(0.13 0 0 -0.13 148.42 352.66)"  >
<path style="stroke: none; stroke-width: 1; stroke-dasharray: none; stroke-linecap: butt; stroke-dashoffset: 0; stroke-linejoin: miter; stroke-miterlimit: 4; fill: rgb(0,0,0); fill-rule: nonzero; opacity: 1;" vector-effect="non-scaling-stroke"  transform=" translate(-7806.17, -1444.57)" d="M 7735 1501 C 7726 1471 7748 1403 7773 1385 C 7802 1365 7843 1366 7863 1388 C 7884 1411 7885 1483 7865 1500 C 7846 1516 7835 1492 7843 1451 C 7850 1419 7832 1396 7812 1409 C 7805 1413 7796 1439 7792 1466 C 7786 1506 7781 1516 7763 1518 C 7749 1520 7740 1515 7735 1501 z" stroke-linecap="round" />
</g>
		<g transform="matrix(0.13 0 0 -0.13 62.46 354.03)"  >
<path style="stroke: none; stroke-width: 1; stroke-dasharray: none; stroke-linecap: butt; stroke-dashoffset: 0; stroke-linejoin: miter; stroke-miterlimit: 4; fill: rgb(0,0,0); fill-rule: nonzero; opacity: 1;" vector-effect="non-scaling-stroke"  transform=" translate(-7161.49, -1434.29)" d="M 7193 1503 C 7186 1501 7180 1490 7180 1479 C 7180 1453 7144 1454 7137 1480 C 7132 1501 7114 1505 7092 1492 C 7083 1486 7082 1467 7086 1422 C 7092 1372 7096 1360 7110 1360 C 7131 1360 7146 1377 7152 1405 C 7157 1435 7184 1430 7188 1398 C 7191 1376 7197 1370 7216 1370 C 7240 1370 7241 1372 7238 1437 C 7235 1505 7227 1518 7193 1503 z" stroke-linecap="round" />
</g>
		<g transform="matrix(0.13 0 0 -0.13 173.02 355.24)"  >
<path style="stroke: none; stroke-width: 1; stroke-dasharray: none; stroke-linecap: butt; stroke-dashoffset: 0; stroke-linejoin: miter; stroke-miterlimit: 4; fill: rgb(0,0,0); fill-rule: nonzero; opacity: 1;" vector-effect="non-scaling-stroke"  transform=" translate(-7990.62, -1425.2)" d="M 7930 1485 C 7913 1464 7927 1433 7960 1418 C 7998 1401 7999 1387 7961 1395 C 7921 1404 7913 1384 7949 1365 C 7989 1345 8023 1346 8043 1368 C 8066 1393 8064 1405 8033 1435 C 8011 1455 8009 1460 8023 1460 C 8046 1460 8045 1477 8021 1490 C 7993 1505 7944 1502 7930 1485 z" stroke-linecap="round" />
</g>
		<g transform="matrix(0.13 0 0 -0.13 37.6 356.02)"  >
<path style="stroke: none; stroke-width: 1; stroke-dasharray: none; stroke-linecap: butt; stroke-dashoffset: 0; stroke-linejoin: miter; stroke-miterlimit: 4; fill: rgb(0,0,0); fill-rule: nonzero; opacity: 1;" vector-effect="non-scaling-stroke"  transform=" translate(-6975, -1419.37)" d="M 6918 1483 C 6908 1481 6900 1472 6900 1463 C 6900 1454 6906 1450 6914 1453 C 6936 1462 6950 1439 6950 1393 C 6950 1354 6952 1350 6974 1350 C 7002 1350 7014 1375 7005 1413 C 6999 1437 7020 1470 7041 1470 C 7046 1470 7050 1475 7050 1480 C 7050 1490 6952 1492 6918 1483 z" stroke-linecap="round" />
</g>
		<g transform="matrix(0.13 0 0 -0.13 194.17 356.57)"  >
<path style="stroke: none; stroke-width: 1; stroke-dasharray: none; stroke-linecap: butt; stroke-dashoffset: 0; stroke-linejoin: miter; stroke-miterlimit: 4; fill: rgb(0,0,0); fill-rule: nonzero; opacity: 1;" vector-effect="non-scaling-stroke"  transform=" translate(-8149.28, -1415.28)" d="M 8080 1480 C 8080 1474 8091 1465 8105 1460 C 8127 1452 8130 1445 8130 1401 C 8130 1360 8134 1350 8150 1345 C 8181 1335 8190 1347 8190 1401 C 8190 1439 8194 1450 8206 1450 C 8230 1450 8217 1473 8189 1481 C 8151 1492 8080 1491 8080 1480 z" stroke-linecap="round" />
</g>
		<g transform="matrix(0.13 0 0 -0.13 122.87 379.33)"  >
<path style="stroke: none; stroke-width: 1; stroke-dasharray: none; stroke-linecap: butt; stroke-dashoffset: 0; stroke-linejoin: miter; stroke-miterlimit: 4; fill: rgb(0,0,0); fill-rule: nonzero; opacity: 1;" vector-effect="non-scaling-stroke"  transform=" translate(-7614.51, -1244.58)" d="M 7584 1308 C 7566 1280 7530 1197 7530 1184 C 7530 1166 7544 1166 7560 1185 C 7576 1204 7611 1204 7636 1185 C 7656 1170 7700 1165 7699 1178 C 7699 1182 7682 1214 7661 1250 C 7624 1314 7599 1333 7584 1308 z" stroke-linecap="round" />
</g>
		<g transform="matrix(0.13 0 0 -0.13 94.93 380.58)"  >
<path style="stroke: none; stroke-width: 1; stroke-dasharray: none; stroke-linecap: butt; stroke-dashoffset: 0; stroke-linejoin: miter; stroke-miterlimit: 4; fill: rgb(0,0,0); fill-rule: nonzero; opacity: 1;" vector-effect="non-scaling-stroke"  transform=" translate(-7405, -1235.15)" d="M 7338 1299 C 7325 1292 7320 1277 7320 1247 C 7320 1163 7341 1140 7382 1177 C 7396 1190 7403 1191 7412 1182 C 7427 1167 7490 1166 7490 1181 C 7490 1188 7483 1198 7474 1204 C 7461 1214 7460 1220 7471 1243 C 7481 1266 7481 1273 7465 1290 C 7445 1312 7369 1318 7338 1299 z M 7418 1258 C 7415 1251 7407 1245 7400 1245 C 7393 1245 7385 1251 7383 1258 C 7380 1265 7387 1270 7400 1270 C 7413 1270 7420 1265 7418 1258 z" stroke-linecap="round" />
</g>
		<g transform="matrix(0.13 0 0 -0.13 66.1 381.97)"  >
<path style="stroke: none; stroke-width: 1; stroke-dasharray: none; stroke-linecap: butt; stroke-dashoffset: 0; stroke-linejoin: miter; stroke-miterlimit: 4; fill: rgb(0,0,0); fill-rule: nonzero; opacity: 1;" vector-effect="non-scaling-stroke"  transform=" translate(-7188.79, -1224.73)" d="M 7148 1284 C 7064 1239 7096 1150 7196 1150 C 7260 1150 7285 1167 7276 1203 C 7268 1238 7233 1239 7220 1205 C 7209 1176 7198 1174 7176 1196 C 7157 1214 7157 1216 7170 1241 C 7177 1252 7196 1262 7220 1266 C 7262 1273 7271 1284 7244 1294 C 7218 1304 7176 1300 7148 1284 z" stroke-linecap="round" />
</g>
		<g transform="matrix(0.13 0 0 -0.13 150.27 381.79)"  >
<path style="stroke: none; stroke-width: 1; stroke-dasharray: none; stroke-linecap: butt; stroke-dashoffset: 0; stroke-linejoin: miter; stroke-miterlimit: 4; fill: rgb(0,0,0); fill-rule: nonzero; opacity: 1;" vector-effect="non-scaling-stroke"  transform=" translate(-7820, -1226.12)" d="M 7730 1236 C 7730 1166 7744 1143 7760 1185 C 7769 1207 7772 1209 7790 1198 C 7806 1188 7814 1188 7829 1197 C 7847 1208 7849 1206 7852 1182 C 7854 1161 7861 1154 7883 1152 C 7908 1149 7910 1152 7910 1182 C 7910 1285 7889 1311 7843 1268 L 7820 1246 L 7792 1273 C 7744 1319 7730 1310 7730 1236 z" stroke-linecap="round" />
</g>
		<g transform="matrix(0.13 0 0 -0.13 38.23 384.54)"  >
<path style="stroke: none; stroke-width: 1; stroke-dasharray: none; stroke-linecap: butt; stroke-dashoffset: 0; stroke-linejoin: miter; stroke-miterlimit: 4; fill: rgb(0,0,0); fill-rule: nonzero; opacity: 1;" vector-effect="non-scaling-stroke"  transform=" translate(-6979.76, -1205.45)" d="M 6915 1249 C 6883 1210 6885 1174 6923 1146 C 6949 1127 6953 1127 6992 1140 C 7015 1148 7042 1167 7053 1181 C 7071 1205 7071 1209 7056 1237 C 7039 1272 7023 1280 6975 1280 C 6950 1280 6935 1272 6915 1249 z M 7000 1204 C 7000 1175 6984 1164 6965 1180 C 6947 1195 6946 1222 6962 1238 C 6978 1254 7000 1235 7000 1204 z" stroke-linecap="round" />
</g>
		<g transform="matrix(0.13 0 0 -0.13 180.93 385.19)"  >
<path style="stroke: none; stroke-width: 1; stroke-dasharray: none; stroke-linecap: butt; stroke-dashoffset: 0; stroke-linejoin: miter; stroke-miterlimit: 4; fill: rgb(0,0,0); fill-rule: nonzero; opacity: 1;" vector-effect="non-scaling-stroke"  transform=" translate(-8050, -1200.61)" d="M 7960 1216 C 7960 1175 7965 1148 7973 1141 C 7991 1127 8000 1137 8000 1168 C 8000 1192 8001 1193 8020 1175 C 8036 1160 8042 1159 8055 1170 C 8073 1185 8086 1176 8092 1145 C 8094 1133 8105 1124 8118 1122 C 8139 1119 8140 1122 8140 1178 C 8140 1211 8137 1245 8134 1254 C 8125 1276 8087 1274 8072 1250 C 8056 1224 8042 1225 8018 1255 C 8007 1269 7990 1280 7979 1280 C 7962 1280 7960 1273 7960 1216 z" stroke-linecap="round" />
</g>
		<g transform="matrix(0.13 0 0 -0.13 203.86 387.4)"  >
<path style="stroke: none; stroke-width: 1; stroke-dasharray: none; stroke-linecap: butt; stroke-dashoffset: 0; stroke-linejoin: miter; stroke-miterlimit: 4; fill: rgb(0,0,0); fill-rule: nonzero; opacity: 1;" vector-effect="non-scaling-stroke"  transform=" translate(-8221.93, -1184)" d="M 8192 1188 C 8195 1116 8195 1115 8224 1112 L 8253 1108 L 8246 1167 C 8236 1248 8231 1260 8209 1260 C 8191 1260 8189 1254 8192 1188 z" stroke-linecap="round" />
</g>
		<g transform="matrix(0.13 0 0 -0.13 11.47 389.42)"  >
<path style="stroke: none; stroke-width: 1; stroke-dasharray: none; stroke-linecap: butt; stroke-dashoffset: 0; stroke-linejoin: miter; stroke-miterlimit: 4; fill: rgb(0,0,0); fill-rule: nonzero; opacity: 1;" vector-effect="non-scaling-stroke"  transform=" translate(-6779.06, -1168.84)" d="M 6733 1239 L 6700 1229 L 6700 1160 C 6700 1083 6712 1072 6750 1110 C 6772 1132 6790 1136 6790 1120 C 6790 1107 6830 1107 6850 1120 C 6862 1127 6861 1132 6845 1150 C 6831 1166 6829 1173 6838 1182 C 6856 1200 6852 1228 6831 1240 C 6808 1252 6777 1252 6733 1239 z M 6790 1201 C 6790 1187 6772 1178 6760 1185 C 6754 1189 6752 1196 6755 1201 C 6763 1213 6790 1213 6790 1201 z" stroke-linecap="round" />
</g>
		<g transform="matrix(0.13 0 0 -0.13 222.28 392.12)"  >
<path style="stroke: none; stroke-width: 1; stroke-dasharray: none; stroke-linecap: butt; stroke-dashoffset: 0; stroke-linejoin: miter; stroke-miterlimit: 4; fill: rgb(0,0,0); fill-rule: nonzero; opacity: 1;" vector-effect="non-scaling-stroke"  transform=" translate(-8360.13, -1148.62)" d="M 8296 1233 C 8287 1223 8289 1117 8299 1101 C 8311 1083 8330 1096 8330 1123 C 8330 1142 8335 1139 8366 1103 C 8417 1042 8430 1046 8430 1123 C 8430 1192 8417 1226 8400 1200 C 8395 1192 8390 1176 8390 1166 C 8390 1151 8383 1156 8360 1187 C 8330 1228 8307 1244 8296 1233 z" stroke-linecap="round" />
</g>
		<g transform="matrix(0.13 0 0 -0.13 -14.55 394.62)"  >
<path style="stroke: none; stroke-width: 1; stroke-dasharray: none; stroke-linecap: butt; stroke-dashoffset: 0; stroke-linejoin: miter; stroke-miterlimit: 4; fill: rgb(0,0,0); fill-rule: nonzero; opacity: 1;" vector-effect="non-scaling-stroke"  transform=" translate(-6583.88, -1129.9)" d="M 6550 1196 C 6515 1183 6515 1183 6512 1116 C 6509 1051 6510 1049 6532 1052 C 6544 1054 6560 1066 6566 1079 C 6573 1092 6592 1109 6610 1118 C 6650 1137 6668 1173 6650 1195 C 6635 1213 6598 1213 6550 1196 z M 6592 1148 C 6577 1133 6566 1144 6574 1166 C 6579 1179 6583 1181 6592 1172 C 6601 1163 6601 1157 6592 1148 z" stroke-linecap="round" />
</g>
		<g transform="matrix(0.13 0 0 -0.13 247.02 399.6)"  >
<path style="stroke: none; stroke-width: 1; stroke-dasharray: none; stroke-linecap: butt; stroke-dashoffset: 0; stroke-linejoin: miter; stroke-miterlimit: 4; fill: rgb(0,0,0); fill-rule: nonzero; opacity: 1;" vector-effect="non-scaling-stroke"  transform=" translate(-8545.63, -1092.5)" d="M 8499 1176 C 8481 1168 8474 1155 8472 1127 C 8469 1094 8474 1084 8508 1049 C 8530 1028 8557 1010 8568 1010 C 8579 1010 8595 1007 8604 1004 C 8616 999 8620 1004 8620 1023 C 8620 1037 8617 1055 8614 1064 C 8606 1084 8570 1085 8570 1065 C 8570 1040 8552 1048 8535 1079 C 8513 1122 8524 1140 8566 1133 C 8594 1128 8599 1130 8595 1142 C 8592 1150 8574 1164 8556 1173 C 8529 1185 8518 1186 8499 1176 z" stroke-linecap="round" />
</g>
		<g transform="matrix(0.13 0 0 -0.13 108.98 409.89)"  >
<path style="stroke: none; stroke-width: 1; stroke-dasharray: none; stroke-linecap: butt; stroke-dashoffset: 0; stroke-linejoin: miter; stroke-miterlimit: 4; fill: rgb(0,0,0); fill-rule: nonzero; opacity: 1;" vector-effect="non-scaling-stroke"  transform=" translate(-7510.32, -1015.34)" d="M 7455 1076 C 7421 1042 7414 1006 7434 974 C 7457 940 7491 926 7532 934 C 7585 944 7604 962 7596 993 C 7588 1028 7554 1029 7538 995 C 7532 981 7524 970 7520 970 C 7505 970 7490 996 7490 1022 C 7490 1053 7513 1070 7555 1070 C 7602 1070 7577 1095 7527 1098 C 7488 1101 7476 1097 7455 1076 z" stroke-linecap="round" />
</g>
		<g transform="matrix(0.13 0 0 -0.13 135.97 409.82)"  >
<path style="stroke: none; stroke-width: 1; stroke-dasharray: none; stroke-linecap: butt; stroke-dashoffset: 0; stroke-linejoin: miter; stroke-miterlimit: 4; fill: rgb(0,0,0); fill-rule: nonzero; opacity: 1;" vector-effect="non-scaling-stroke"  transform=" translate(-7712.78, -1015.85)" d="M 7640 1041 C 7640 964 7666 928 7718 932 C 7769 936 7792 971 7784 1033 C 7774 1102 7750 1097 7750 1026 C 7750 990 7746 970 7737 967 C 7713 958 7703 973 7697 1028 C 7690 1091 7685 1100 7659 1100 C 7642 1100 7640 1093 7640 1041 z" stroke-linecap="round" />
</g>
		<g transform="matrix(0.13 0 0 -0.13 81.34 411.06)"  >
<path style="stroke: none; stroke-width: 1; stroke-dasharray: none; stroke-linecap: butt; stroke-dashoffset: 0; stroke-linejoin: miter; stroke-miterlimit: 4; fill: rgb(0,0,0); fill-rule: nonzero; opacity: 1;" vector-effect="non-scaling-stroke"  transform=" translate(-7303.07, -1006.56)" d="M 7347 1083 C 7343 1080 7340 1064 7340 1048 C 7340 1012 7329 1013 7301 1051 C 7284 1074 7272 1080 7252 1078 C 7225 1075 7225 1074 7229 1005 C 7230 967 7234 931 7237 927 C 7246 912 7270 942 7270 968 L 7270 994 L 7304 961 C 7353 913 7374 921 7378 990 C 7383 1069 7370 1107 7347 1083 z" stroke-linecap="round" />
</g>
		<g transform="matrix(0.13 0 0 -0.13 55.1 413.06)"  >
<path style="stroke: none; stroke-width: 1; stroke-dasharray: none; stroke-linecap: butt; stroke-dashoffset: 0; stroke-linejoin: miter; stroke-miterlimit: 4; fill: rgb(0,0,0); fill-rule: nonzero; opacity: 1;" vector-effect="non-scaling-stroke"  transform=" translate(-7106.27, -991.59)" d="M 7050 995 C 7032 953 7020 917 7023 913 C 7027 910 7041 915 7054 924 C 7086 944 7109 944 7131 924 C 7152 905 7190 914 7190 937 C 7190 945 7175 979 7158 1011 C 7112 1095 7092 1092 7050 995 z M 7100 984 C 7100 976 7095 972 7090 975 C 7084 979 7082 986 7085 991 C 7094 1005 7100 1002 7100 984 z" stroke-linecap="round" />
</g>
		<g transform="matrix(0.13 0 0 -0.13 160.43 413.37)"  >
<path style="stroke: none; stroke-width: 1; stroke-dasharray: none; stroke-linecap: butt; stroke-dashoffset: 0; stroke-linejoin: miter; stroke-miterlimit: 4; fill: rgb(0,0,0); fill-rule: nonzero; opacity: 1;" vector-effect="non-scaling-stroke"  transform=" translate(-7896.23, -989.27)" d="M 7836 1000 C 7820 961 7810 926 7813 924 C 7816 921 7834 924 7854 931 C 7885 942 7892 942 7908 927 C 7926 910 7980 903 7980 918 C 7980 922 7963 957 7942 995 C 7890 1092 7872 1093 7836 1000 z M 7885 990 C 7888 985 7886 980 7881 980 C 7875 980 7870 985 7870 990 C 7870 996 7872 1000 7874 1000 C 7877 1000 7882 996 7885 990 z" stroke-linecap="round" />
</g>
		<g transform="matrix(0.13 0 0 -0.13 30.82 415.72)"  >
<path style="stroke: none; stroke-width: 1; stroke-dasharray: none; stroke-linecap: butt; stroke-dashoffset: 0; stroke-linejoin: miter; stroke-miterlimit: 4; fill: rgb(0,0,0); fill-rule: nonzero; opacity: 1;" vector-effect="non-scaling-stroke"  transform=" translate(-6924.14, -971.6)" d="M 6867 1043 C 6856 1033 6859 902 6870 895 C 6876 891 6905 894 6936 901 C 6976 910 6990 917 6988 929 C 6986 939 6974 944 6955 945 C 6926 945 6925 947 6922 998 C 6919 1045 6917 1050 6896 1050 C 6884 1050 6870 1047 6867 1043 z" stroke-linecap="round" />
</g>
		<g transform="matrix(0.13 0 0 -0.13 184.33 415.95)"  >
<path style="stroke: none; stroke-width: 1; stroke-dasharray: none; stroke-linecap: butt; stroke-dashoffset: 0; stroke-linejoin: miter; stroke-miterlimit: 4; fill: rgb(0,0,0); fill-rule: nonzero; opacity: 1;" vector-effect="non-scaling-stroke"  transform=" translate(-8075.46, -969.87)" d="M 8010 1030 C 7986 1006 7985 979 8005 940 C 8025 901 8048 890 8109 890 L 8160 890 L 8160 924 C 8160 951 8155 960 8139 965 C 8119 972 8107 963 8097 936 C 8091 918 8061 939 8054 966 C 8045 1002 8070 1020 8116 1013 C 8137 1009 8150 1011 8150 1018 C 8150 1053 8042 1062 8010 1030 z" stroke-linecap="round" />
</g>
		<g transform="matrix(0.13 0 0 -0.13 209.83 419.45)"  >
<path style="stroke: none; stroke-width: 1; stroke-dasharray: none; stroke-linecap: butt; stroke-dashoffset: 0; stroke-linejoin: miter; stroke-miterlimit: 4; fill: rgb(0,0,0); fill-rule: nonzero; opacity: 1;" vector-effect="non-scaling-stroke"  transform=" translate(-8266.69, -943.63)" d="M 8209 1026 C 8207 1024 8207 989 8210 949 L 8215 876 L 8250 867 C 8307 853 8325 854 8325 870 C 8325 878 8316 886 8305 888 C 8261 897 8249 930 8291 930 C 8318 930 8314 947 8283 964 C 8254 980 8258 983 8302 980 C 8324 979 8329 982 8324 994 C 8316 1015 8224 1040 8209 1026 z" stroke-linecap="round" />
</g>
		<g transform="matrix(0.13 0 0 -0.13 -83.73 341.27)"  >
<path style="stroke: none; stroke-width: 1; stroke-dasharray: none; stroke-linecap: butt; stroke-dashoffset: 0; stroke-linejoin: miter; stroke-miterlimit: 4; fill: rgb(0,0,0); fill-rule: nonzero; opacity: 1;" vector-effect="non-scaling-stroke"  transform=" translate(-6065, -1530)" d="M 6055 1530 C 6058 1525 6066 1520 6071 1520 C 6077 1520 6078 1525 6075 1530 C 6072 1536 6064 1540 6059 1540 C 6053 1540 6052 1536 6055 1530 z" stroke-linecap="round" />
</g>
		<g transform="matrix(0.13 0 0 -0.13 -576.92 -348)"  >
<path style="stroke: none; stroke-width: 1; stroke-dasharray: none; stroke-linecap: butt; stroke-dashoffset: 0; stroke-linejoin: miter; stroke-miterlimit: 4; fill: rgb(0,0,0); fill-rule: nonzero; opacity: 1;" vector-effect="non-scaling-stroke"  transform=" translate(-2366.08, -6699.5)" d="M 2352 6894 C 2265 6875 2228 6854 2232 6827 C 2235 6808 2241 6805 2283 6807 L 2330 6808 L 2330 6694 C 2330 6581 2330 6579 2305 6568 C 2264 6549 2259 6490 2298 6490 C 2324 6490 2431 6543 2468 6574 C 2498 6600 2510 6633 2492 6643 C 2488 6646 2467 6642 2445 6634 C 2423 6627 2402 6624 2398 6628 C 2388 6638 2385 6803 2394 6818 C 2398 6825 2413 6835 2426 6840 C 2459 6853 2468 6879 2445 6896 C 2435 6904 2424 6909 2421 6909 C 2418 6908 2387 6901 2352 6894 z" stroke-linecap="round" />
</g>
		<g transform="matrix(0.13 0 0 -0.13 -514.55 -347.82)"  >
<path style="stroke: none; stroke-width: 1; stroke-dasharray: none; stroke-linecap: butt; stroke-dashoffset: 0; stroke-linejoin: miter; stroke-miterlimit: 4; fill: rgb(0,0,0); fill-rule: nonzero; opacity: 1;" vector-effect="non-scaling-stroke"  transform=" translate(-2833.87, -6698.17)" d="M 2770 6880 C 2729 6863 2689 6841 2682 6832 C 2671 6819 2669 6789 2673 6705 C 2681 6552 2705 6490 2757 6490 C 2809 6490 2980 6694 2995 6774 C 3003 6814 2981 6862 2945 6886 C 2901 6915 2851 6913 2770 6880 z M 2908 6828 C 2938 6798 2906 6722 2827 6638 C 2777 6583 2765 6588 2750 6665 C 2734 6752 2741 6775 2797 6810 C 2846 6842 2888 6848 2908 6828 z" stroke-linecap="round" />
</g>
		<g transform="matrix(0.13 0 0 -0.13 -423.48 -347.98)"  >
<path style="stroke: none; stroke-width: 1; stroke-dasharray: none; stroke-linecap: butt; stroke-dashoffset: 0; stroke-linejoin: miter; stroke-miterlimit: 4; fill: rgb(0,0,0); fill-rule: nonzero; opacity: 1;" vector-effect="non-scaling-stroke"  transform=" translate(-3516.87, -6699.34)" d="M 3850 6894 C 3809 6887 3762 6875 3746 6868 C 3720 6858 3715 6859 3699 6878 C 3677 6906 3666 6906 3650 6875 C 3643 6861 3631 6850 3624 6850 C 3618 6850 3609 6861 3606 6875 C 3602 6889 3595 6900 3590 6900 C 3572 6900 3548 6837 3543 6778 C 3540 6746 3535 6720 3533 6720 C 3530 6720 3498 6752 3461 6790 C 3389 6864 3359 6876 3339 6838 C 3328 6817 3327 6818 3292 6855 C 3259 6889 3253 6892 3212 6887 C 3142 6879 3092 6836 3043 6741 C 3019 6696 3000 6645 3000 6629 C 3000 6571 3049 6510 3095 6510 C 3153 6510 3226 6543 3274 6591 C 3301 6618 3327 6637 3331 6633 C 3335 6629 3345 6599 3354 6567 C 3369 6517 3374 6509 3393 6512 C 3408 6514 3414 6521 3413 6535 C 3401 6626 3398 6720 3407 6720 C 3419 6720 3509 6627 3534 6588 C 3573 6529 3601 6566 3610 6685 C 3614 6753 3618 6765 3632 6762 C 3641 6761 3654 6769 3660 6780 C 3671 6801 3704 6807 3715 6791 C 3718 6785 3743 6784 3770 6787 C 3829 6794 3821 6816 3849 6572 C 3854 6532 3860 6497 3863 6494 C 3876 6481 3910 6503 3917 6528 C 3920 6543 3918 6608 3912 6673 C 3905 6738 3902 6795 3905 6800 C 3908 6805 3934 6816 3963 6826 C 3991 6835 4020 6847 4027 6852 C 4040 6862 4033 6890 4016 6902 C 4000 6913 3936 6910 3850 6894 z M 3274 6776 C 3286 6731 3280 6691 3255 6662 C 3205 6602 3090 6569 3060 6605 C 3034 6637 3120 6766 3194 6804 C 3228 6822 3265 6809 3274 6776 z" stroke-linecap="round" />
</g>
		<g transform="matrix(0.13 0 0 -0.13 600.89 -362.76)"  >
<path style="stroke: none; stroke-width: 1; stroke-dasharray: none; stroke-linecap: butt; stroke-dashoffset: 0; stroke-linejoin: miter; stroke-miterlimit: 4; fill: rgb(0,0,0); fill-rule: nonzero; opacity: 1;" vector-effect="non-scaling-stroke"  transform=" translate(-11199.7, -6810.25)" d="M 11170 6835 C 11144 6803 11183 6754 11218 6776 C 11252 6798 11240 6850 11200 6850 C 11190 6850 11177 6843 11170 6835 z" stroke-linecap="round" />
</g>
		<g transform="matrix(0.13 0 0 -0.13 600.92 -338.68)"  >
<path style="stroke: none; stroke-width: 1; stroke-dasharray: none; stroke-linecap: butt; stroke-dashoffset: 0; stroke-linejoin: miter; stroke-miterlimit: 4; fill: rgb(0,0,0); fill-rule: nonzero; opacity: 1;" vector-effect="non-scaling-stroke"  transform=" translate(-11199.91, -6629.59)" d="M 11170 6655 C 11163 6647 11160 6630 11164 6615 C 11169 6595 11177 6590 11200 6590 C 11237 6590 11250 6622 11224 6651 C 11203 6674 11187 6675 11170 6655 z" stroke-linecap="round" />
</g>
		<g transform="matrix(0.13 0 0 -0.13 600.86 -314.94)"  >
<path style="stroke: none; stroke-width: 1; stroke-dasharray: none; stroke-linecap: butt; stroke-dashoffset: 0; stroke-linejoin: miter; stroke-miterlimit: 4; fill: rgb(0,0,0); fill-rule: nonzero; opacity: 1;" vector-effect="non-scaling-stroke"  transform=" translate(-11199.43, -6451.57)" d="M 11172 6478 C 11140 6446 11174 6399 11215 6418 C 11245 6432 11248 6465 11221 6480 C 11196 6493 11187 6493 11172 6478 z" stroke-linecap="round" />
</g>
		<g transform="matrix(0.13 0 0 -0.13 601.03 -290.7)"  >
<path style="stroke: none; stroke-width: 1; stroke-dasharray: none; stroke-linecap: butt; stroke-dashoffset: 0; stroke-linejoin: miter; stroke-miterlimit: 4; fill: rgb(0,0,0); fill-rule: nonzero; opacity: 1;" vector-effect="non-scaling-stroke"  transform=" translate(-11200.72, -6269.74)" d="M 11171 6296 C 11163 6286 11160 6270 11164 6254 C 11169 6234 11176 6229 11197 6232 C 11211 6234 11228 6243 11234 6253 C 11257 6289 11198 6329 11171 6296 z" stroke-linecap="round" />
</g>
		<g transform="matrix(0.13 0 0 -0.13 -555.63 -264.73)"  >
<path style="stroke: none; stroke-width: 1; stroke-dasharray: none; stroke-linecap: butt; stroke-dashoffset: 0; stroke-linejoin: miter; stroke-miterlimit: 4; fill: rgb(0,0,0); fill-rule: nonzero; opacity: 1;" vector-effect="non-scaling-stroke"  transform=" translate(-2525.78, -6075)" d="M 2393 6255 C 2300 6210 2264 6181 2224 6119 C 2187 6061 2178 6001 2195 5925 C 2202 5893 2270 5860 2326 5860 C 2392 5861 2450 5889 2519 5955 C 2551 5985 2580 6010 2583 6010 C 2587 6010 2590 5979 2590 5941 C 2590 5883 2593 5870 2608 5866 C 2629 5859 2783 5903 2817 5925 C 2844 5943 2845 5949 2826 5975 C 2812 5995 2802 5994 2682 5963 C 2660 5958 2659 5960 2662 5996 L 2665 6035 L 2744 6060 C 2829 6088 2853 6108 2831 6134 C 2814 6154 2798 6154 2730 6130 C 2672 6110 2652 6116 2668 6147 C 2674 6158 2711 6176 2764 6193 C 2857 6223 2882 6246 2854 6274 C 2846 6283 2837 6290 2835 6290 C 2833 6290 2796 6277 2753 6260 C 2711 6244 2665 6230 2653 6230 C 2628 6230 2604 6200 2596 6158 C 2578 6070 2581 6076 2560 6095 C 2545 6109 2530 6112 2493 6107 C 2381 6093 2276 6041 2295 6010 C 2301 6001 2323 5999 2384 6004 L 2465 6010 L 2442 5990 C 2390 5946 2304 5939 2270 5975 C 2246 6000 2246 6001 2264 6033 C 2292 6080 2316 6105 2408 6177 C 2488 6239 2508 6271 2476 6283 C 2468 6286 2431 6274 2393 6255 z" stroke-linecap="round" />
</g>
		<g transform="matrix(0.13 0 0 -0.13 -483.15 -264.65)"  >
<path style="stroke: none; stroke-width: 1; stroke-dasharray: none; stroke-linecap: butt; stroke-dashoffset: 0; stroke-linejoin: miter; stroke-miterlimit: 4; fill: rgb(0,0,0); fill-rule: nonzero; opacity: 1;" vector-effect="non-scaling-stroke"  transform=" translate(-3069.4, -6074.4)" d="M 3070 6270 C 2945 6249 2892 6220 2905 6181 C 2911 6161 2918 6159 2961 6161 C 2988 6163 3015 6159 3021 6153 C 3026 6148 3036 6087 3042 6019 C 3054 5890 3060 5870 3091 5870 C 3116 5870 3122 5909 3118 6060 L 3115 6185 L 3171 6203 C 3226 6220 3243 6238 3233 6268 C 3228 6281 3145 6283 3070 6270 z" stroke-linecap="round" />
</g>
		<g transform="matrix(0.13 0 0 -0.13 -409.44 -264.3)"  >
<path style="stroke: none; stroke-width: 1; stroke-dasharray: none; stroke-linecap: butt; stroke-dashoffset: 0; stroke-linejoin: miter; stroke-miterlimit: 4; fill: rgb(0,0,0); fill-rule: nonzero; opacity: 1;" vector-effect="non-scaling-stroke"  transform=" translate(-3622.2, -6071.76)" d="M 3653 6269 C 3625 6264 3582 6253 3558 6243 C 3534 6234 3496 6227 3473 6227 C 3431 6227 3431 6227 3426 6186 C 3407 6031 3413 5902 3439 5885 C 3444 5882 3455 5883 3464 5886 C 3477 5891 3480 5912 3480 6010 C 3480 6075 3483 6135 3486 6144 C 3491 6156 3507 6160 3555 6160 L 3617 6160 L 3624 6114 C 3627 6088 3630 6044 3631 6016 C 3632 5942 3652 5865 3670 5865 C 3678 5865 3691 5877 3699 5892 C 3712 5915 3713 5935 3702 6041 C 3693 6129 3693 6166 3701 6176 C 3707 6183 3736 6196 3765 6205 C 3817 6220 3840 6245 3825 6270 C 3818 6282 3727 6281 3653 6269 z" stroke-linecap="round" />
</g>
		<g transform="matrix(0.13 0 0 -0.13 -363.16 -244.87)"  >
<path style="stroke: none; stroke-width: 1; stroke-dasharray: none; stroke-linecap: butt; stroke-dashoffset: 0; stroke-linejoin: miter; stroke-miterlimit: 4; fill: rgb(0,0,0); fill-rule: nonzero; opacity: 1;" vector-effect="non-scaling-stroke"  transform=" translate(-3969.33, -5926.02)" d="M 3857 5962 C 3836 5939 3835 5896 3855 5880 C 3867 5870 3876 5870 3896 5879 C 3910 5885 3929 5887 3938 5882 C 3947 5878 3979 5875 4009 5875 C 4056 5875 4065 5878 4083 5902 C 4100 5925 4102 5934 4092 5954 C 4082 5978 4077 5979 4018 5976 C 3983 5974 3948 5970 3939 5966 C 3929 5962 3919 5963 3915 5969 C 3905 5986 3875 5982 3857 5962 z" stroke-linecap="round" />
</g>
		<g transform="matrix(0.13 0 0 -0.13 518.19 -183.76)"  >
<path style="stroke: none; stroke-width: 1; stroke-dasharray: none; stroke-linecap: butt; stroke-dashoffset: 0; stroke-linejoin: miter; stroke-miterlimit: 4; fill: rgb(0,0,0); fill-rule: nonzero; opacity: 1;" vector-effect="non-scaling-stroke"  transform=" translate(-10579.41, -5467.76)" d="M 10554 5580 C 10514 5565 10480 5512 10480 5465 C 10480 5355 10618 5308 10666 5402 C 10692 5453 10678 5511 10628 5556 C 10598 5583 10580 5589 10554 5580 z M 10611 5484 C 10617 5476 10619 5459 10616 5444 C 10611 5424 10604 5419 10583 5422 C 10547 5426 10533 5451 10547 5483 C 10560 5510 10589 5511 10611 5484 z" stroke-linecap="round" />
</g>
		<g transform="matrix(0.13 0 0 -0.13 497.96 -139.99)"  >
<path style="stroke: none; stroke-width: 1; stroke-dasharray: none; stroke-linecap: butt; stroke-dashoffset: 0; stroke-linejoin: miter; stroke-miterlimit: 4; fill: rgb(0,0,0); fill-rule: nonzero; opacity: 1;" vector-effect="non-scaling-stroke"  transform=" translate(-10427.66, -5139.46)" d="M 10394 5166 C 10385 5143 10393 5118 10413 5106 C 10438 5090 10465 5110 10465 5146 C 10465 5171 10461 5175 10432 5178 C 10410 5180 10398 5176 10394 5166 z" stroke-linecap="round" />
</g>
		<g transform="matrix(0.13 0 0 -0.13 -291.07 13.95)"  >
<path style="stroke: none; stroke-width: 1; stroke-dasharray: none; stroke-linecap: butt; stroke-dashoffset: 0; stroke-linejoin: miter; stroke-miterlimit: 4; fill: rgb(0,0,0); fill-rule: nonzero; opacity: 1;" vector-effect="non-scaling-stroke"  transform=" translate(-4510, -3984.87)" d="M 4453 4099 C 4413 4074 4380 4022 4380 3985 C 4380 3943 4416 3894 4464 3871 C 4527 3840 4554 3844 4600 3890 C 4637 3927 4640 3934 4640 3986 C 4640 4056 4629 4077 4577 4101 C 4523 4125 4493 4125 4453 4099 z M 4572 4008 C 4593 3945 4531 3898 4475 3934 C 4412 3975 4451 4043 4534 4037 C 4556 4036 4566 4028 4572 4008 z" stroke-linecap="round" />
</g>
		<g transform="matrix(0.13 0 0 -0.13 -258.69 63.7)"  >
<path style="stroke: none; stroke-width: 1; stroke-dasharray: none; stroke-linecap: butt; stroke-dashoffset: 0; stroke-linejoin: miter; stroke-miterlimit: 4; fill: rgb(0,0,0); fill-rule: nonzero; opacity: 1;" vector-effect="non-scaling-stroke"  transform=" translate(-4752.83, -3611.75)" d="M 4706 3668 C 4658 3589 4701 3512 4777 3541 C 4831 3561 4834 3603 4786 3654 C 4747 3696 4726 3699 4706 3668 z" stroke-linecap="round" />
</g>
		<g transform="matrix(0.13 0 0 -0.13 -104.34 383.78)"  >
<path style="stroke: none; stroke-width: 1; stroke-dasharray: none; stroke-linecap: butt; stroke-dashoffset: 0; stroke-linejoin: miter; stroke-miterlimit: 4; fill: rgb(0,0,0); fill-rule: nonzero; opacity: 1;" vector-effect="non-scaling-stroke"  transform=" translate(-5910.42, -1211.19)" d="M 5883 1243 C 5864 1236 5867 1222 5894 1193 C 5915 1171 5921 1169 5934 1179 C 5943 1187 5950 1205 5950 1221 C 5950 1246 5946 1250 5923 1249 C 5907 1249 5889 1246 5883 1243 z" stroke-linecap="round" />
</g>
		<g transform="matrix(0.13 0 0 -0.13 -267.2 403.97)"  >
<path style="stroke: none; stroke-width: 1; stroke-dasharray: none; stroke-linecap: butt; stroke-dashoffset: 0; stroke-linejoin: miter; stroke-miterlimit: 4; fill: rgb(0,0,0); fill-rule: nonzero; opacity: 1;" vector-effect="non-scaling-stroke"  transform=" translate(-4689, -1059.74)" d="M 4553 1132 C 4477 1115 4440 1103 4440 1093 C 4440 1084 4454 1080 4488 1080 C 4531 1079 4534 1078 4516 1065 C 4505 1057 4486 1050 4474 1050 C 4449 1050 4434 1035 4449 1026 C 4454 1022 4507 1031 4565 1045 C 4677 1071 4725 1076 4734 1061 C 4737 1056 4714 1049 4682 1045 C 4651 1041 4607 1032 4585 1024 C 4563 1017 4525 1008 4502 1004 C 4478 1000 4456 991 4453 983 C 4442 954 4446 955 4615 1000 C 4685 1020 4710 1021 4817 1016 L 4938 1009 L 4938 1055 L 4938 1100 L 4835 1100 C 4776 1100 4728 1104 4725 1110 C 4721 1116 4753 1120 4815 1120 C 4901 1120 4911 1122 4908 1138 C 4905 1153 4890 1155 4785 1156 C 4689 1157 4642 1153 4553 1132 z M 4630 1099 C 4630 1089 4600 1079 4588 1086 C 4581 1090 4582 1095 4589 1100 C 4604 1109 4630 1109 4630 1099 z M 4818 1059 C 4816 1053 4811 1049 4807 1049 C 4803 1050 4793 1050 4784 1050 C 4776 1050 4772 1055 4775 1060 C 4783 1073 4823 1073 4818 1059 z M 4895 1050 C 4920 1039 4894 1039 4860 1050 C 4840 1056 4839 1058 4855 1058 C 4866 1058 4884 1055 4895 1050 z M 4777 1034 C 4774 1031 4765 1030 4758 1033 C 4750 1036 4753 1039 4764 1039 C 4775 1040 4781 1037 4777 1034 z" stroke-linecap="round" />
</g>
		<g transform="matrix(0.13 0 0 -0.13 -182.43 412.48)"  >
<path style="stroke: none; stroke-width: 1; stroke-dasharray: none; stroke-linecap: butt; stroke-dashoffset: 0; stroke-linejoin: miter; stroke-miterlimit: 4; fill: rgb(0,0,0); fill-rule: nonzero; opacity: 1;" vector-effect="non-scaling-stroke"  transform=" translate(-5324.75, -995.93)" d="M 4990 1144 C 4990 1139 4998 1130 5009 1123 C 5024 1114 5027 1101 5024 1055 C 5020 990 5025 987 5123 977 C 5174 972 5181 973 5178 988 C 5176 997 5165 1009 5152 1015 C 5126 1026 5122 1045 5148 1035 C 5157 1032 5208 1016 5260 1001 C 5369 969 5509 912 5592 867 C 5649 836 5675 835 5650 865 C 5642 874 5624 888 5608 896 C 5593 904 5580 915 5580 920 C 5580 934 5614 932 5628 918 C 5641 905 5655 913 5646 928 C 5629 957 5333 1081 5204 1115 C 5100 1142 4990 1157 4990 1144 z M 5187 1074 C 5184 1071 5175 1070 5168 1073 C 5160 1076 5163 1079 5174 1079 C 5185 1080 5191 1077 5187 1074 z M 5291 1054 C 5366 1031 5425 1001 5413 989 C 5405 981 5348 1000 5225 1055 C 5181 1075 5222 1074 5291 1054 z M 5518 962 C 5548 943 5546 939 5508 947 C 5472 953 5450 967 5450 982 C 5450 993 5486 983 5518 962 z" stroke-linecap="round" />
</g>
		<g transform="matrix(0.13 0 0 -0.13 -103.49 397.39)"  >
<path style="stroke: none; stroke-width: 1; stroke-dasharray: none; stroke-linecap: butt; stroke-dashoffset: 0; stroke-linejoin: miter; stroke-miterlimit: 4; fill: rgb(0,0,0); fill-rule: nonzero; opacity: 1;" vector-effect="non-scaling-stroke"  transform=" translate(-5916.82, -1109.13)" d="M 5885 1143 C 5879 1138 5875 1120 5875 1103 C 5875 1074 5878 1070 5901 1070 C 5938 1070 5963 1092 5958 1121 C 5956 1140 5948 1146 5925 1148 C 5909 1149 5890 1147 5885 1143 z" stroke-linecap="round" />
</g>
		<g transform="matrix(0.13 0 0 -0.13 -102.71 411.56)"  >
<path style="stroke: none; stroke-width: 1; stroke-dasharray: none; stroke-linecap: butt; stroke-dashoffset: 0; stroke-linejoin: miter; stroke-miterlimit: 4; fill: rgb(0,0,0); fill-rule: nonzero; opacity: 1;" vector-effect="non-scaling-stroke"  transform=" translate(-5922.67, -1002.79)" d="M 5890 1031 C 5874 1000 5878 972 5901 960 C 5936 941 5980 993 5960 1030 C 5946 1056 5904 1056 5890 1031 z" stroke-linecap="round" />
</g>
		<g transform="matrix(0.13 0 0 -0.13 -266.97 418.56)"  >
<path style="stroke: none; stroke-width: 1; stroke-dasharray: none; stroke-linecap: butt; stroke-dashoffset: 0; stroke-linejoin: miter; stroke-miterlimit: 4; fill: rgb(0,0,0); fill-rule: nonzero; opacity: 1;" vector-effect="non-scaling-stroke"  transform=" translate(-4690.71, -950.29)" d="M 4648 985 C 4645 982 4601 970 4550 957 C 4498 944 4455 929 4452 922 C 4447 906 4474 907 4540 926 C 4652 959 4733 969 4833 963 C 4895 960 4930 961 4930 968 C 4930 973 4920 980 4908 984 C 4880 991 4655 992 4648 985 z" stroke-linecap="round" />
</g>
		<g transform="matrix(0.13 0 0 -0.13 -183.09 435.17)"  >
<path style="stroke: none; stroke-width: 1; stroke-dasharray: none; stroke-linecap: butt; stroke-dashoffset: 0; stroke-linejoin: miter; stroke-miterlimit: 4; fill: rgb(0,0,0); fill-rule: nonzero; opacity: 1;" vector-effect="non-scaling-stroke"  transform=" translate(-5319.8, -825.76)" d="M 5010 940 C 5010 934 5029 921 5053 910 C 5091 893 5092 891 5068 891 C 5008 889 5029 857 5100 841 C 5155 828 5368 750 5432 719 C 5480 696 5497 697 5487 723 C 5480 741 5378 790 5280 823 C 5171 860 5109 888 5138 889 C 5150 890 5168 886 5178 880 C 5187 875 5236 857 5285 839 C 5335 822 5402 795 5435 780 C 5468 765 5520 742 5550 730 C 5580 718 5611 706 5619 703 C 5628 699 5631 703 5629 716 C 5625 737 5532 785 5440 815 C 5410 825 5349 848 5305 866 C 5239 893 5046 950 5018 950 C 5013 950 5010 945 5010 940 z" stroke-linecap="round" />
</g>
		<g transform="matrix(0.13 0 0 -0.13 -265.05 425.61)"  >
<path style="stroke: none; stroke-width: 1; stroke-dasharray: none; stroke-linecap: butt; stroke-dashoffset: 0; stroke-linejoin: miter; stroke-miterlimit: 4; fill: rgb(0,0,0); fill-rule: nonzero; opacity: 1;" vector-effect="non-scaling-stroke"  transform=" translate(-4705.09, -897.48)" d="M 4710 930 C 4674 925 4627 916 4605 910 C 4583 904 4547 894 4525 889 C 4483 878 4454 860 4481 860 C 4505 861 4605 887 4626 898 C 4651 911 4820 925 4820 914 C 4820 909 4847 905 4880 905 C 4981 905 4946 926 4833 934 C 4801 936 4746 935 4710 930 z" stroke-linecap="round" />
</g>
		<g transform="matrix(0.13 0 0 -0.13 -101.04 426.61)"  >
<path style="stroke: none; stroke-width: 1; stroke-dasharray: none; stroke-linecap: butt; stroke-dashoffset: 0; stroke-linejoin: miter; stroke-miterlimit: 4; fill: rgb(0,0,0); fill-rule: nonzero; opacity: 1;" vector-effect="non-scaling-stroke"  transform=" translate(-5935.21, -889.98)" d="M 5912 924 C 5883 904 5884 847 5913 842 C 5930 839 5931 842 5925 871 C 5919 898 5920 902 5934 897 C 5943 893 5957 887 5965 884 C 5986 875 5984 903 5962 923 C 5939 944 5940 944 5912 924 z" stroke-linecap="round" />
</g>
		<g transform="matrix(0.13 0 0 -0.13 -265.2 434.1)"  >
<path style="stroke: none; stroke-width: 1; stroke-dasharray: none; stroke-linecap: butt; stroke-dashoffset: 0; stroke-linejoin: miter; stroke-miterlimit: 4; fill: rgb(0,0,0); fill-rule: nonzero; opacity: 1;" vector-effect="non-scaling-stroke"  transform=" translate(-4704.01, -833.74)" d="M 4635 865 C 4516 835 4470 818 4470 804 C 4470 787 4475 787 4502 801 C 4557 830 4688 853 4810 854 C 4884 855 4936 859 4938 865 C 4941 880 4695 881 4635 865 z" stroke-linecap="round" />
</g>
		<g transform="matrix(0.13 0 0 -0.13 -76.4 443.02)"  >
<path style="stroke: none; stroke-width: 1; stroke-dasharray: none; stroke-linecap: butt; stroke-dashoffset: 0; stroke-linejoin: miter; stroke-miterlimit: 4; fill: rgb(0,0,0); fill-rule: nonzero; opacity: 1;" vector-effect="non-scaling-stroke"  transform=" translate(-6120, -766.88)" d="M 6156 815 C 6152 804 6136 800 6100 800 C 6066 800 6050 796 6050 787 C 6050 764 6073 750 6109 750 C 6131 750 6152 742 6167 728 L 6190 707 L 6190 757 C 6190 809 6169 847 6156 815 z" stroke-linecap="round" />
</g>
		<g transform="matrix(0.13 0 0 -0.13 -100.14 441.94)"  >
<path style="stroke: none; stroke-width: 1; stroke-dasharray: none; stroke-linecap: butt; stroke-dashoffset: 0; stroke-linejoin: miter; stroke-miterlimit: 4; fill: rgb(0,0,0); fill-rule: nonzero; opacity: 1;" vector-effect="non-scaling-stroke"  transform=" translate(-5941.93, -775)" d="M 5920 810 C 5912 805 5905 785 5904 766 C 5903 737 5907 730 5922 730 C 5960 730 5980 749 5980 785 C 5980 815 5977 820 5958 820 C 5945 820 5928 816 5920 810 z" stroke-linecap="round" />
</g>
		<g transform="matrix(0.13 0 0 -0.13 -282.4 442.02)"  >
<path style="stroke: none; stroke-width: 1; stroke-dasharray: none; stroke-linecap: butt; stroke-dashoffset: 0; stroke-linejoin: miter; stroke-miterlimit: 4; fill: rgb(0,0,0); fill-rule: nonzero; opacity: 1;" vector-effect="non-scaling-stroke"  transform=" translate(-4575, -774.4)" d="M 4610 800 C 4596 796 4559 785 4528 775 C 4496 766 4470 752 4470 745 C 4470 736 4488 739 4537 756 C 4573 769 4606 777 4610 775 C 4621 768 4680 790 4680 801 C 4680 812 4644 811 4610 800 z" stroke-linecap="round" />
</g>
		<g transform="matrix(0.13 0 0 -0.13 -183.57 453.06)"  >
<path style="stroke: none; stroke-width: 1; stroke-dasharray: none; stroke-linecap: butt; stroke-dashoffset: 0; stroke-linejoin: miter; stroke-miterlimit: 4; fill: rgb(0,0,0); fill-rule: nonzero; opacity: 1;" vector-effect="non-scaling-stroke"  transform=" translate(-5316.23, -691.55)" d="M 5044 789 C 5038 778 5047 774 5115 760 C 5142 754 5192 736 5225 720 C 5258 704 5337 673 5400 651 C 5463 630 5528 607 5543 601 C 5577 588 5590 587 5590 599 C 5590 610 5466 659 5375 685 C 5342 695 5284 717 5245 736 C 5167 773 5053 803 5044 789 z" stroke-linecap="round" />
</g>
		<g transform="matrix(0.13 0 0 -0.13 -262.09 473.28)"  >
<path style="stroke: none; stroke-width: 1; stroke-dasharray: none; stroke-linecap: butt; stroke-dashoffset: 0; stroke-linejoin: miter; stroke-miterlimit: 4; fill: rgb(0,0,0); fill-rule: nonzero; opacity: 1;" vector-effect="non-scaling-stroke"  transform=" translate(-4727.36, -539.89)" d="M 4695 743 C 4637 735 4507 699 4486 685 C 4475 677 4468 670 4470 669 C 4473 669 4484 667 4495 665 C 4505 663 4519 665 4525 669 C 4541 683 4594 691 4607 682 C 4615 677 4593 667 4550 655 C 4496 640 4480 632 4480 618 C 4480 595 4487 595 4538 620 C 4560 631 4591 640 4605 640 C 4620 640 4639 644 4648 649 C 4657 654 4708 660 4760 663 C 4823 666 4847 665 4831 659 C 4818 654 4780 648 4746 645 C 4668 640 4605 626 4535 598 C 4470 571 4460 546 4518 555 L 4555 561 L 4524 547 C 4507 539 4490 525 4487 516 C 4482 503 4488 500 4513 499 L 4545 498 L 4513 488 C 4495 482 4480 471 4480 464 C 4480 447 4488 447 4528 461 C 4590 482 4597 464 4538 437 C 4477 410 4459 385 4508 395 L 4535 401 L 4508 380 C 4492 368 4480 352 4480 344 C 4480 326 4484 326 4519 345 C 4571 371 4704 403 4770 404 C 4806 404 4870 401 4912 397 C 4978 390 4989 391 4984 404 C 4981 412 4970 420 4960 423 C 4947 426 4944 434 4947 452 C 4949 465 4943 502 4932 533 C 4921 564 4914 599 4917 610 C 4921 623 4917 630 4907 630 C 4899 630 4887 637 4880 645 C 4869 658 4872 660 4894 660 C 4910 660 4920 666 4920 674 C 4920 697 4901 704 4838 702 C 4806 701 4780 704 4780 709 C 4780 725 4831 731 4867 719 C 4902 708 4950 713 4950 729 C 4950 747 4790 756 4695 743 z M 4660 690 C 4660 685 4658 680 4656 680 C 4653 680 4648 685 4645 690 C 4642 696 4644 700 4649 700 C 4655 700 4660 696 4660 690 z M 4899 610 C 4901 610 4901 608 4898 605 C 4895 602 4846 598 4789 596 C 4723 594 4667 586 4637 575 C 4611 566 4586 561 4583 564 C 4570 577 4599 592 4654 599 C 4685 603 4713 610 4717 614 C 4724 621 4778 619 4899 610 z M 4890 551 C 4890 547 4880 544 4868 545 C 4822 550 4627 530 4614 519 C 4607 513 4593 510 4583 512 C 4567 515 4568 517 4588 529 C 4601 536 4630 545 4653 550 C 4710 561 4890 562 4890 551 z M 4843 511 C 4853 510 4859 506 4856 501 C 4852 496 4819 492 4782 493 C 4745 493 4708 490 4701 485 C 4681 473 4600 468 4600 478 C 4600 492 4730 518 4780 515 C 4805 513 4833 511 4843 511 z M 4910 494 C 4910 480 4907 480 4895 490 C 4887 497 4880 504 4880 506 C 4880 508 4887 510 4895 510 C 4903 510 4910 503 4910 494 z M 4928 447 C 4932 428 4922 426 4901 439 C 4885 449 4896 473 4913 467 C 4920 465 4926 456 4928 447 z M 4760 451 C 4692 430 4680 429 4680 445 C 4680 457 4692 460 4733 459 C 4772 458 4779 456 4760 451 z M 4860 450 C 4860 445 4853 440 4845 440 C 4837 440 4830 445 4830 450 C 4830 456 4837 460 4845 460 C 4853 460 4860 456 4860 450 z M 4660 431 C 4634 416 4580 408 4580 418 C 4580 430 4603 437 4645 439 C 4666 439 4671 437 4660 431 z" stroke-linecap="round" />
</g>
		<g transform="matrix(0.13 0 0 -0.13 -177.67 464.98)"  >
<path style="stroke: none; stroke-width: 1; stroke-dasharray: none; stroke-linecap: butt; stroke-dashoffset: 0; stroke-linejoin: miter; stroke-miterlimit: 4; fill: rgb(0,0,0); fill-rule: nonzero; opacity: 1;" vector-effect="non-scaling-stroke"  transform=" translate(-5360.47, -602.14)" d="M 5052 719 C 5054 712 5070 702 5086 698 C 5102 694 5171 677 5239 661 C 5345 635 5383 620 5499 557 C 5655 472 5670 466 5670 483 C 5670 490 5649 506 5623 518 C 5596 529 5530 564 5475 594 C 5379 647 5299 675 5150 706 C 5113 713 5074 723 5065 727 C 5052 731 5049 729 5052 719 z" stroke-linecap="round" />
</g>
		<g transform="matrix(0.13 0 0 -0.13 -99.05 458.78)"  >
<path style="stroke: none; stroke-width: 1; stroke-dasharray: none; stroke-linecap: butt; stroke-dashoffset: 0; stroke-linejoin: miter; stroke-miterlimit: 4; fill: rgb(0,0,0); fill-rule: nonzero; opacity: 1;" vector-effect="non-scaling-stroke"  transform=" translate(-5950.14, -648.71)" d="M 5912 653 C 5913 599 5917 597 5956 626 C 6006 665 5998 690 5934 690 C 5913 690 5911 686 5912 653 z" stroke-linecap="round" />
</g>
		<g transform="matrix(0.13 0 0 -0.13 -74.99 463.06)"  >
<path style="stroke: none; stroke-width: 1; stroke-dasharray: none; stroke-linecap: butt; stroke-dashoffset: 0; stroke-linejoin: miter; stroke-miterlimit: 4; fill: rgb(0,0,0); fill-rule: nonzero; opacity: 1;" vector-effect="non-scaling-stroke"  transform=" translate(-6130.56, -616.58)" d="M 6070 682 C 6064 680 6060 670 6060 659 C 6060 645 6069 638 6090 634 C 6129 626 6133 590 6095 590 C 6077 590 6070 585 6070 570 C 6070 552 6077 550 6135 550 C 6207 550 6220 565 6175 594 C 6146 613 6142 630 6168 630 C 6194 630 6201 640 6190 660 C 6183 673 6165 679 6130 682 C 6102 683 6075 684 6070 682 z" stroke-linecap="round" />
</g>
		<g transform="matrix(0.13 0 0 -0.13 -177.07 472.09)"  >
<path style="stroke: none; stroke-width: 1; stroke-dasharray: none; stroke-linecap: butt; stroke-dashoffset: 0; stroke-linejoin: miter; stroke-miterlimit: 4; fill: rgb(0,0,0); fill-rule: nonzero; opacity: 1;" vector-effect="non-scaling-stroke"  transform=" translate(-5365, -548.85)" d="M 5050 666 C 5050 658 5066 650 5093 646 C 5150 637 5355 572 5405 547 C 5426 536 5468 519 5498 509 C 5527 499 5578 475 5610 455 C 5674 416 5680 414 5680 433 C 5679 467 5329 614 5145 658 C 5052 681 5050 681 5050 666 z" stroke-linecap="round" />
</g>
		<g transform="matrix(0.13 0 0 -0.13 -174.96 479.8)"  >
<path style="stroke: none; stroke-width: 1; stroke-dasharray: none; stroke-linecap: butt; stroke-dashoffset: 0; stroke-linejoin: miter; stroke-miterlimit: 4; fill: rgb(0,0,0); fill-rule: nonzero; opacity: 1;" vector-effect="non-scaling-stroke"  transform=" translate(-5380.8, -491.04)" d="M 5075 610 C 5071 604 5079 596 5092 591 C 5105 585 5156 563 5207 541 C 5257 519 5327 491 5362 480 C 5396 468 5439 452 5457 444 C 5532 410 5680 361 5685 370 C 5693 383 5703 380 5385 495 C 5335 513 5263 542 5225 560 C 5123 607 5081 620 5075 610 z" stroke-linecap="round" />
</g>
		<g transform="matrix(0.13 0 0 -0.13 -97.99 473.78)"  >
<path style="stroke: none; stroke-width: 1; stroke-dasharray: none; stroke-linecap: butt; stroke-dashoffset: 0; stroke-linejoin: miter; stroke-miterlimit: 4; fill: rgb(0,0,0); fill-rule: nonzero; opacity: 1;" vector-effect="non-scaling-stroke"  transform=" translate(-5958.09, -536.2)" d="M 5931 581 C 5921 574 5920 568 5930 550 C 5939 534 5939 525 5931 517 C 5908 494 5918 477 5952 484 C 5994 492 6007 505 5991 524 C 5984 532 5982 549 5986 564 C 5991 587 5989 590 5969 590 C 5956 590 5939 586 5931 581 z" stroke-linecap="round" />
</g>
		<g transform="matrix(0.13 0 0 -0.13 -184.16 484.34)"  >
<path style="stroke: none; stroke-width: 1; stroke-dasharray: none; stroke-linecap: butt; stroke-dashoffset: 0; stroke-linejoin: miter; stroke-miterlimit: 4; fill: rgb(0,0,0); fill-rule: nonzero; opacity: 1;" vector-effect="non-scaling-stroke"  transform=" translate(-5311.78, -456.96)" d="M 5055 560 C 5045 545 5183 481 5272 461 C 5319 450 5394 421 5444 396 C 5528 353 5571 340 5569 358 C 5568 372 5344 470 5277 485 C 5215 499 5161 519 5088 556 C 5072 565 5059 566 5055 560 z" stroke-linecap="round" />
</g>
		<g transform="matrix(0.13 0 0 -0.13 -73.73 486.26)"  >
<path style="stroke: none; stroke-width: 1; stroke-dasharray: none; stroke-linecap: butt; stroke-dashoffset: 0; stroke-linejoin: miter; stroke-miterlimit: 4; fill: rgb(0,0,0); fill-rule: nonzero; opacity: 1;" vector-effect="non-scaling-stroke"  transform=" translate(-6140.01, -442.6)" d="M 6093 493 C 6074 489 6070 482 6070 452 C 6070 432 6075 408 6080 400 C 6089 387 6091 387 6100 400 C 6105 408 6110 421 6110 429 C 6110 440 6114 439 6130 425 C 6140 416 6156 410 6164 413 C 6172 416 6181 412 6184 404 C 6187 396 6194 390 6200 390 C 6214 390 6213 477 6199 486 C 6185 494 6124 498 6093 493 z" stroke-linecap="round" />
</g>
		<g transform="matrix(0.13 0 0 -0.13 -179.82 496.6)"  >
<path style="stroke: none; stroke-width: 1; stroke-dasharray: none; stroke-linecap: butt; stroke-dashoffset: 0; stroke-linejoin: miter; stroke-miterlimit: 4; fill: rgb(0,0,0); fill-rule: nonzero; opacity: 1;" vector-effect="non-scaling-stroke"  transform=" translate(-5344.31, -365)" d="M 5180 441 C 5180 426 5215 405 5336 346 C 5422 304 5497 270 5502 270 C 5507 270 5510 279 5508 291 C 5506 303 5487 321 5460 336 C 5398 369 5199 460 5189 460 C 5184 460 5180 451 5180 441 z" stroke-linecap="round" />
</g>
		<g transform="matrix(0.13 0 0 -0.13 -96.52 492.15)"  >
<path style="stroke: none; stroke-width: 1; stroke-dasharray: none; stroke-linecap: butt; stroke-dashoffset: 0; stroke-linejoin: miter; stroke-miterlimit: 4; fill: rgb(0,0,0); fill-rule: nonzero; opacity: 1;" vector-effect="non-scaling-stroke"  transform=" translate(-5969.09, -398.42)" d="M 5957 449 C 5943 441 5940 431 5945 410 C 5948 394 5947 379 5941 375 C 5935 372 5930 362 5930 354 C 5930 336 5970 336 5995 354 C 6010 365 6012 371 6002 382 C 5996 390 5992 409 5993 425 C 5995 456 5984 464 5957 449 z" stroke-linecap="round" />
</g>
		<g transform="matrix(0.13 0 0 -0.13 -175.08 516.6)"  >
<path style="stroke: none; stroke-width: 1; stroke-dasharray: none; stroke-linecap: butt; stroke-dashoffset: 0; stroke-linejoin: miter; stroke-miterlimit: 4; fill: rgb(0,0,0); fill-rule: nonzero; opacity: 1;" vector-effect="non-scaling-stroke"  transform=" translate(-5379.88, -215)" d="M 5056 383 C 5059 356 5065 332 5069 329 C 5072 326 5098 315 5125 305 C 5153 296 5208 270 5248 249 C 5289 227 5327 210 5334 210 C 5349 210 5434 151 5428 144 C 5425 142 5347 178 5253 225 C 5159 272 5077 310 5071 310 C 5056 310 5057 285 5073 273 C 5079 268 5105 256 5130 246 C 5155 236 5182 225 5190 220 C 5368 132 5471 75 5461 72 C 5455 70 5432 80 5410 94 C 5389 108 5359 122 5343 126 C 5328 130 5308 138 5300 145 C 5277 164 5132 230 5098 237 C 5070 242 5069 241 5078 223 C 5084 212 5086 194 5083 182 C 5078 163 5088 155 5154 124 C 5196 104 5233 90 5236 93 C 5250 106 5216 140 5173 156 C 5146 165 5118 179 5110 187 C 5099 198 5105 197 5135 185 C 5200 159 5480 18 5486 9 C 5489 4 5535 0 5588 0 L 5686 0 L 5687 39 C 5689 80 5692 77 5605 115 C 5507 159 5160 330 5160 335 C 5160 347 5203 328 5434 214 C 5561 152 5674 100 5684 98 C 5726 91 5707 120 5653 145 C 5621 161 5503 218 5390 274 C 5277 330 5159 384 5128 393 C 5096 403 5070 415 5070 421 C 5070 426 5065 430 5059 430 C 5052 430 5051 414 5056 383 z M 5500 119 C 5513 112 5513 111 5500 111 C 5492 111 5474 117 5460 126 L 5435 141 L 5460 134 C 5474 131 5492 124 5500 119 z M 5621 62 C 5604 56 5560 69 5560 79 C 5560 84 5576 83 5596 77 C 5616 71 5627 64 5621 62 z" stroke-linecap="round" />
</g>
		<g transform="matrix(0.13 0 0 -0.13 232.98 519.8)"  >
<path style="stroke: none; stroke-width: 1; stroke-dasharray: none; stroke-linecap: butt; stroke-dashoffset: 0; stroke-linejoin: miter; stroke-miterlimit: 4; fill: rgb(0,0,0); fill-rule: nonzero; opacity: 1;" vector-effect="non-scaling-stroke"  transform=" translate(-8440.37, -191.03)" d="M 8252 375 C 8215 359 8197 332 8170 255 C 8145 181 8135 106 8144 46 L 8151 0 L 8321 0 C 8484 0 8491 1 8485 19 C 8482 30 8484 42 8491 45 C 8499 51 8498 55 8489 61 C 8468 74 8491 105 8521 105 C 8542 105 8545 100 8548 67 C 8550 46 8546 22 8539 14 C 8530 3 8532 0 8554 0 C 8581 0 8585 9 8581 63 C 8578 94 8577 93 8619 79 C 8654 67 8657 58 8635 40 C 8603 13 8618 0 8680 0 C 8713 0 8740 2 8740 4 C 8740 6 8735 32 8730 61 C 8713 152 8672 246 8635 279 C 8562 343 8321 403 8252 375 z M 8320 215 C 8320 189 8306 182 8295 200 C 8286 214 8296 240 8310 240 C 8315 240 8320 229 8320 215 z M 8398 204 C 8402 178 8378 167 8354 184 C 8330 202 8343 232 8372 228 C 8386 226 8396 217 8398 204 z M 8447 186 C 8443 177 8436 170 8430 170 C 8419 170 8416 203 8427 214 C 8438 224 8453 203 8447 186 z M 8495 180 C 8495 144 8466 147 8462 183 C 8459 206 8462 211 8477 208 C 8489 206 8495 196 8495 180 z M 8560 159 C 8560 147 8553 140 8541 140 C 8514 140 8507 155 8520 180 C 8529 197 8534 199 8546 189 C 8554 183 8560 169 8560 159 z M 8598 152 C 8600 137 8596 130 8586 130 C 8575 130 8570 139 8570 156 C 8570 187 8593 184 8598 152 z M 8343 141 C 8347 137 8348 114 8344 91 C 8337 50 8337 49 8301 52 C 8266 55 8265 56 8268 95 C 8272 157 8277 163 8308 155 C 8323 152 8339 145 8343 141 z M 8413 98 C 8409 76 8410 69 8418 74 C 8425 78 8430 90 8430 101 C 8430 120 8454 128 8464 112 C 8467 107 8464 87 8458 66 C 8447 31 8444 29 8411 32 C 8376 35 8375 36 8372 83 C 8369 127 8370 130 8394 130 C 8417 130 8419 127 8413 98 z" stroke-linecap="round" />
</g>
		<g transform="matrix(0.13 0 0 -0.13 -96.34 506.62)"  >
<path style="stroke: none; stroke-width: 1; stroke-dasharray: none; stroke-linecap: butt; stroke-dashoffset: 0; stroke-linejoin: miter; stroke-miterlimit: 4; fill: rgb(0,0,0); fill-rule: nonzero; opacity: 1;" vector-effect="non-scaling-stroke"  transform=" translate(-5970.48, -289.9)" d="M 5942 298 C 5924 280 5928 270 5954 270 C 5989 270 6010 280 6010 296 C 6010 313 5959 315 5942 298 z" stroke-linecap="round" />
</g>
		<g transform="matrix(0.13 0 0 -0.13 104.09 526.59)"  >
<path style="stroke: none; stroke-width: 1; stroke-dasharray: none; stroke-linecap: butt; stroke-dashoffset: 0; stroke-linejoin: miter; stroke-miterlimit: 4; fill: rgb(0,0,0); fill-rule: nonzero; opacity: 1;" vector-effect="non-scaling-stroke"  transform=" translate(-7473.7, -140.08)" d="M 7498 263 C 7490 253 7475 223 7466 197 C 7444 139 7427 130 7392 159 C 7288 242 7230 216 7230 85 C 7230 55 7226 28 7220 25 C 7215 22 7187 26 7159 34 C 7117 47 7103 47 7082 37 C 7068 31 7055 19 7052 13 C 7047 -6 7087 -3 7094 15 C 7101 34 7134 34 7150 15 C 7158 5 7181 0 7216 0 L 7269 0 L 7275 48 C 7287 140 7295 173 7306 177 C 7321 182 7380 132 7380 114 C 7380 96 7411 96 7457 115 C 7498 132 7617 135 7673 119 C 7709 109 7842 26 7848 9 C 7850 4 7862 0 7875 0 C 7897 0 7898 3 7894 37 C 7886 91 7882 100 7867 100 C 7857 100 7854 92 7858 75 C 7861 56 7858 50 7845 50 C 7832 50 7829 56 7833 70 C 7837 86 7834 90 7822 88 C 7795 84 7780 99 7780 131 C 7780 163 7765 200 7752 200 C 7747 200 7746 184 7748 165 C 7752 135 7749 130 7731 130 C 7704 130 7693 156 7709 181 C 7724 206 7712 205 7684 179 C 7655 152 7626 161 7610 201 C 7579 274 7531 301 7498 263 z M 7560 231 C 7578 188 7570 170 7525 154 C 7503 147 7484 140 7484 140 C 7483 140 7486 155 7490 173 C 7511 262 7538 284 7560 231 z" stroke-linecap="round" />
</g>
		<g transform="matrix(0.13 0 0 -0.13 -71.75 519.88)"  >
<path style="stroke: none; stroke-width: 1; stroke-dasharray: none; stroke-linecap: butt; stroke-dashoffset: 0; stroke-linejoin: miter; stroke-miterlimit: 4; fill: rgb(0,0,0); fill-rule: nonzero; opacity: 1;" vector-effect="non-scaling-stroke"  transform=" translate(-6154.87, -190.39)" d="M 6093 254 C 6090 245 6092 229 6098 220 C 6106 207 6106 194 6098 172 C 6092 156 6090 135 6094 125 C 6100 108 6101 108 6113 124 C 6121 135 6136 140 6160 138 C 6187 136 6196 140 6207 160 C 6214 174 6219 203 6218 225 L 6215 265 L 6157 268 C 6111 270 6099 268 6093 254 z M 6185 202 C 6185 184 6165 187 6162 206 C 6159 216 6163 221 6172 218 C 6179 215 6185 208 6185 202 z" stroke-linecap="round" />
</g>
		<g transform="matrix(0.13 0 0 -0.13 -96.27 518.89)"  >
<path style="stroke: none; stroke-width: 1; stroke-dasharray: none; stroke-linecap: butt; stroke-dashoffset: 0; stroke-linejoin: miter; stroke-miterlimit: 4; fill: rgb(0,0,0); fill-rule: nonzero; opacity: 1;" vector-effect="non-scaling-stroke"  transform=" translate(-5970.94, -197.83)" d="M 5968 239 C 5958 234 5950 220 5950 209 C 5950 198 5945 180 5940 170 C 5927 146 5937 141 5975 151 C 6002 159 6005 163 6007 205 C 6009 252 6001 259 5968 239 z" stroke-linecap="round" />
</g>
		<g transform="matrix(0.13 0 0 -0.13 20.68 532.42)"  >
<path style="stroke: none; stroke-width: 1; stroke-dasharray: none; stroke-linecap: butt; stroke-dashoffset: 0; stroke-linejoin: miter; stroke-miterlimit: 4; fill: rgb(0,0,0); fill-rule: nonzero; opacity: 1;" vector-effect="non-scaling-stroke"  transform=" translate(-6848.12, -96.37)" d="M 6930 149 C 6889 112 6775 38 6725 16 C 6714 12 6710 6 6716 3 C 6723 1 6745 11 6765 25 C 6786 39 6807 50 6813 50 C 6818 50 6851 70 6886 96 C 6954 144 6961 140 6930 71 C 6919 47 6910 20 6910 11 C 6911 -7 6929 32 6965 128 C 6978 162 6986 190 6982 190 C 6978 189 6955 171 6930 149 z" stroke-linecap="round" />
</g>
		<g transform="matrix(0.13 0 0 -0.13 -94.67 535.97)"  >
<path style="stroke: none; stroke-width: 1; stroke-dasharray: none; stroke-linecap: butt; stroke-dashoffset: 0; stroke-linejoin: miter; stroke-miterlimit: 4; fill: rgb(0,0,0); fill-rule: nonzero; opacity: 1;" vector-effect="non-scaling-stroke"  transform=" translate(-5982.99, -69.75)" d="M 5952 100 C 5946 89 5940 67 5940 50 C 5940 26 5944 20 5961 20 C 5979 20 5981 24 5975 50 C 5968 82 5985 91 6007 69 C 6023 53 6033 75 6020 100 C 6006 126 5968 126 5952 100 z" stroke-linecap="round" />
</g>
		<g transform="matrix(0.13 0 0 -0.13 -205.53 536.47)"  >
<path style="stroke: none; stroke-width: 1; stroke-dasharray: none; stroke-linecap: butt; stroke-dashoffset: 0; stroke-linejoin: miter; stroke-miterlimit: 4; fill: rgb(0,0,0); fill-rule: nonzero; opacity: 1;" vector-effect="non-scaling-stroke"  transform=" translate(-5151.52, -66.02)" d="M 5095 91 C 5105 74 5194 29 5209 33 C 5218 35 5198 50 5163 68 C 5097 102 5085 106 5095 91 z" stroke-linecap="round" />
</g>
		<g transform="matrix(0.13 0 0 -0.13 -71.4 539.3)"  >
<path style="stroke: none; stroke-width: 1; stroke-dasharray: none; stroke-linecap: butt; stroke-dashoffset: 0; stroke-linejoin: miter; stroke-miterlimit: 4; fill: rgb(0,0,0); fill-rule: nonzero; opacity: 1;" vector-effect="non-scaling-stroke"  transform=" translate(-6157.51, -44.81)" d="M 6144 80 C 6120 71 6090 33 6090 13 C 6090 -5 6127 -3 6134 15 C 6137 24 6152 30 6174 30 C 6210 30 6232 52 6223 78 C 6218 92 6176 93 6144 80 z" stroke-linecap="round" />
</g>
</g>
</g>
</svg>